<?xml version="1.0" encoding="UTF-8"?>
<svg id="Layer_1" data-name="Layer 1" xmlns="http://www.w3.org/2000/svg" viewBox="0 0 20 20">
  <defs>
    <style>
      .cls-1 {
        fill: #262626;
      }

      .cls-2 {
        fill: #f6863b;
      }
    </style>
  </defs>
  <rect class="cls-2" width="20" height="20" rx="3.43" ry="3.43"/>
  <g>
    <path class="cls-1" d="M6.91,8.18c0-.82-.2-2.23-1.31-2.23-1.29,0-1.48,1.82-1.48,4.07,0,2.49.12,4.04,1.55,4.04,1.13,0,1.38-.92,1.45-2.44l2.66.24c0,2.66-1.58,4.45-4.24,4.45-3.72,0-4.72-3.15-4.72-6.31,0-2.91.99-6.31,4.72-6.31,2.93,0,4.24,1.98,4.24,4.48h-2.87Z"/>
    <path class="cls-1" d="M10.33,13.24c.71,1.98,2.37,3.07,4.43,3.07,2.39,0,4.43-1.62,4.43-4.11,0-3.8-5.49-3.41-5.49-5.13,0-.7.53-1.02,1.06-1.02.89,0,1.35.63,1.67,1.35l2.44-1.02c-.53-1.52-2.06-2.68-4.11-2.68s-3.92,1.62-3.92,3.44c0,4.69,5.38,3.32,5.38,5.79,0,.58-.56,1.02-1.26,1.02-1.17,0-1.65-.71-2.1-1.74l-2.54,1.02h0Z"/>
  </g>
</svg>