<svg width="20" height="20" viewBox="0 0 20 20" fill="none" xmlns="http://www.w3.org/2000/svg">
<path d="M13.3848 8.65379C11.7307 8.14967 10.8169 6.32746 11.3473 4.57877C11.5311 3.97487 11.862 3.455 12.2873 3.0559C12.2873 3.0559 13.3953 1.96888 15.1388 2.57279C15.1178 2.57279 15.102 2.57279 15.081 2.57279C14.0255 2.57279 13.1695 3.51801 13.1695 4.67855C13.1695 5.83909 14.0255 6.78433 15.081 6.78433C15.9107 6.78433 16.6196 6.19619 16.8822 5.37698C16.8822 5.37698 16.94 5.19843 16.9767 4.90961C16.982 4.86235 16.9872 4.80459 16.9872 4.80459C17.0503 4.06941 16.9242 2.76709 15.4906 1.73783C13.5424 0.367237 10.8064 0.503768 10.8064 0.503768C5.94373 0.503768 2 4.53151 2 9.5045C2 14.4775 5.94373 18.5 10.8064 18.5H17.3391V6.39574C16.8087 8.14442 15.039 9.15792 13.3796 8.65905" fill="#FCB614"/>
</svg>
