<svg width="20" height="20" viewBox="0 0 20 20" fill="none" xmlns="http://www.w3.org/2000/svg">
<g clip-path="url(#clip0_12138_10572)">
<path d="M12.6291 4.64041C12.6261 4.64114 12.6232 4.6416 12.6194 4.64233C12.6183 4.64233 12.6169 4.64306 12.6155 4.64306C12.5561 4.65695 12.4987 4.67752 12.4446 4.70433C12.4086 4.72122 12.3731 4.735 12.3378 4.74843C12.2856 4.76907 12.2317 4.78572 12.1766 4.79819C12.0736 4.82193 11.9668 4.82781 11.8615 4.81553C11.4812 4.76988 11.1854 4.48072 10.9971 4.11751C10.9973 4.11756 10.9976 4.11756 10.9978 4.11751C10.9978 4.11751 10.9978 4.11751 10.9978 4.11687C11.0768 4.14061 11.2231 4.15842 11.3973 4.16937C11.7203 4.18946 12.1393 4.18489 12.4082 4.14536C12.4328 4.14143 12.4578 4.14002 12.4827 4.14116C12.8374 4.15805 12.9553 4.7035 12.9553 4.7035C12.9553 4.7035 12.8485 4.59695 12.6286 4.63959M17.4509 6.31046C16.8163 5.92698 16.678 4.95194 16.678 4.95194C15.2874 4.53194 14.0883 3.94056 14.0883 3.94056C13.5086 3.57635 13.3738 3.36041 12.4994 3.12248H12.498V3.12101C14.3678 1.64827 13.6927 -0.775769 13.5039 0.0687062C13.3565 0.731851 12.0226 2.27827 11.4418 2.92873C11.4052 2.92928 11.3156 2.95018 11.2775 2.95183C12.6619 1.38495 12.0739 -0.965134 11.9249 -0.419499C11.6882 0.451911 9.35594 3.84497 9.35594 3.84497C9.35594 3.84497 7.99057 4.9986 7.84342 5.33579C7.84342 5.33579 8.16511 5.26274 8.34131 5.2737C8.34131 5.2737 7.07764 7.43259 7.05248 8.39184C7.05248 8.39184 7.26005 8.18184 7.3835 8.10615C7.3767 8.39768 7.72346 10.3874 7.86138 11.1549C8.01854 12.0405 8.01301 12.981 7.05763 13.2871C6.88085 13.3433 6.69494 13.366 6.5 13.361C8.00417 15.2461 11.1566 20.5 11.1566 20.5C12.5011 19.6059 13.3518 18.3711 13.5821 17.7692C13.617 17.7715 14.0149 17.9395 14.0149 17.9395C14.8244 16.449 14.4899 14.5775 14.2312 14.0989C14.6369 14.3228 14.7813 14.2896 14.7813 14.2896C14.736 13.8984 14.0237 12.2818 14.0237 12.2818C14.4917 12.338 14.6215 12.1929 14.6215 12.1929C13.7432 11.6379 13.2514 10.1055 13.2514 10.1055C13.4546 10.2176 13.5569 10.257 13.9507 10.459C13.2852 9.20746 12.2442 7.99749 12.2442 7.99749C12.8092 8.15728 13.6351 7.59521 14.0017 7.42675C14.3986 7.24286 14.8813 7.12024 14.8813 7.12024C15.2348 7.12937 15.6723 7.41981 15.9999 7.39963C16.4009 7.37343 17.2361 6.53178 17.3493 6.53927C17.4736 6.54676 17.558 6.37492 17.4514 6.31101" fill="black"/>
</g>
<defs>
<clipPath id="clip0_12138_10572">
<rect width="20" height="20" fill="white"/>
</clipPath>
</defs>
</svg>
