<svg width="21" height="20" viewBox="0 0 21 20" fill="none" xmlns="http://www.w3.org/2000/svg">
<path d="M12.2864 10.1424L11.5852 10.5473L11.3384 10.126L12.2864 10.1424ZM10.5155 14.6717H17.8328C17.8328 14.6717 17.1119 13.6908 16.8584 11.7158C16.5062 9.76059 15.5253 9.3623 14.4292 9.3623H10.5187C10.5187 9.3623 10.5319 9.77705 9.89663 9.77705C9.26134 9.77705 8.97497 10.1227 8.97168 10.7185C8.97168 10.7185 9.0408 11.5611 8.99472 11.6599L9.12309 11.6961C9.12309 11.6961 9.26464 11.3011 9.91309 11.4722C10.5615 11.6434 10.522 11.9397 10.522 11.9397V14.6684L10.5155 14.6717Z" fill="#D14529"/>
<path d="M10.5157 9.17813H14.7751C14.7751 9.17813 17.0957 9.33613 17.0957 6.95957C17.0957 4.58301 15.0845 4.58301 14.5973 4.58301H2.83301V14.6719H8.84682V6.4757C8.84682 6.4757 10.5157 6.2749 10.5157 7.1406C10.5157 8.00631 10.5157 9.17813 10.5157 9.17813Z" fill="#4F524A"/>
</svg>
