<svg width="21" height="20" viewBox="0 0 21 20" fill="none" xmlns="http://www.w3.org/2000/svg">
<path d="M11.215 15.082C11.215 15.082 11.1898 15.082 11.1772 15.082C10.6984 15.0596 10.3833 14.6189 10.3665 14.6009C10.3497 14.5739 10.3539 14.5379 10.3791 14.52C10.4001 14.502 10.4379 14.5065 10.4547 14.5289C10.4547 14.5334 10.7572 14.9471 11.1814 14.9651C11.4587 14.9786 11.7191 14.8302 11.9795 14.5244C12.0005 14.502 12.0341 14.4975 12.0551 14.5244C12.0761 14.5469 12.0803 14.5829 12.0551 14.6054C11.7863 14.9247 11.5007 15.0865 11.2108 15.0865L11.215 15.082Z" fill="#231F20"/>
<path d="M9.66475 15.0829C9.37492 15.0829 9.08928 14.9211 8.82045 14.6018C8.79945 14.5793 8.80365 14.5433 8.82465 14.5208C8.84565 14.4984 8.87926 14.4984 8.90026 14.5208C9.15649 14.8266 9.42952 14.975 9.69835 14.9615C10.1268 14.939 10.425 14.5298 10.425 14.5253C10.4418 14.4984 10.4796 14.4939 10.5006 14.5163C10.5259 14.5343 10.5301 14.5703 10.5091 14.5973C10.4964 14.6153 10.1772 15.056 9.70255 15.0784C9.68995 15.0784 9.67735 15.0784 9.66475 15.0784V15.0829Z" fill="#231F20"/>
<path d="M14.5712 9.49088C14.5712 9.49088 14.567 9.43691 14.5586 9.38743C14.3906 7.75017 14.0546 6.84609 13.5337 6.63468C13.2355 6.50874 12.8994 6.62569 12.5382 6.97203C11.5805 7.88961 11.1646 9.03209 10.9882 9.77875C10.8118 9.74726 10.6312 9.72927 10.4421 9.72927C10.1565 9.72927 9.88346 9.76975 9.61883 9.84172C9.57683 9.31996 9.3458 7.44431 8.05204 5.95099C7.90503 5.79806 7.15733 5.0469 6.70368 5.31678C6.39284 5.50569 6.35084 6.05445 6.56506 7.05749C6.59027 7.15645 7.15313 9.4504 8.19486 10.6648C7.54798 11.2991 7.14473 12.2032 7.14473 13.2062C7.14473 15.1223 8.62331 16.6831 10.4421 16.6831C12.2609 16.6831 13.7395 15.1223 13.7395 13.2062C13.7395 12.2077 13.3363 11.3081 12.6978 10.6738C12.8238 10.35 12.9498 10.0666 13.038 9.90919C13.1347 10.1341 13.2481 10.3815 13.3783 10.6514C13.6765 11.2496 13.9117 11.533 14.1344 11.533C14.168 11.533 14.1974 11.5285 14.2268 11.515C14.7434 11.335 14.5754 9.50887 14.5712 9.49088ZM6.8675 6.97653C6.62387 5.83854 6.80029 5.63614 6.8591 5.60015C7.03972 5.4922 7.54378 5.86553 7.83782 6.17589C9.11897 7.65572 9.29959 9.59883 9.32479 9.93618C9.00136 10.0576 8.70312 10.233 8.43849 10.4534C7.44297 9.30197 6.8759 6.99902 6.8717 6.97653H6.8675ZM13.4413 13.2062C13.4413 14.9469 12.0971 16.3638 10.4421 16.3638C8.78713 16.3638 7.44297 14.9469 7.44297 13.2062C7.44297 11.4655 8.78713 10.0441 10.4421 10.0441C12.0971 10.0441 13.4413 11.461 13.4413 13.2062ZM13.1809 9.44591C13.0716 9.14904 12.8406 8.52832 12.8364 7.9166C12.8364 7.82664 12.7692 7.75467 12.6852 7.75467C12.6012 7.75467 12.534 7.83114 12.534 7.9166C12.5382 8.59129 12.7818 9.24799 12.8994 9.56735V9.58085C12.8112 9.6888 12.6684 9.92719 12.4584 10.4579C12.1139 10.1791 11.7149 9.96767 11.2822 9.84622C11.4544 9.14004 11.8451 8.06503 12.7356 7.21042C13.0086 6.94954 13.2397 6.85508 13.4287 6.93605C13.958 7.15195 14.1806 8.59129 14.2646 9.42791C14.2688 9.48188 14.273 9.51787 14.2772 9.54036C14.2898 9.63482 14.3108 10.0396 14.294 10.4445C14.2604 11.1281 14.1386 11.2136 14.1386 11.2136C14.1386 11.2136 13.9874 11.2001 13.6429 10.5074C13.4161 10.0441 13.1809 9.44591 13.1809 9.44591Z" fill="#231F20"/>
<path fill-rule="evenodd" clip-rule="evenodd" d="M9.32024 12.4024C9.32024 12.5238 9.22783 12.6227 9.11862 12.6227C9.0094 12.6227 8.91699 12.5238 8.91699 12.4024C8.91699 12.281 9.0094 12.1865 9.11862 12.1865C9.22783 12.1865 9.32024 12.2854 9.32024 12.4024Z" fill="#231F20"/>
<path fill-rule="evenodd" clip-rule="evenodd" d="M11.9452 12.4024C11.9452 12.5238 11.8528 12.6227 11.7436 12.6227C11.6344 12.6227 11.542 12.5238 11.542 12.4024C11.542 12.281 11.6344 12.1865 11.7436 12.1865C11.8528 12.1865 11.9452 12.2854 11.9452 12.4024Z" fill="#231F20"/>
<path d="M10.1697 14.0303C10.1697 14.0303 10.1529 14.0303 10.1403 14.0393C10.0899 14.0617 10.0647 14.0977 10.0479 14.1652V14.2461C10.0521 14.3001 10.0941 14.3585 10.1529 14.4215C10.2411 14.5204 10.3461 14.6013 10.4301 14.6643C10.5477 14.5789 10.6359 14.5024 10.7115 14.4215C10.7619 14.363 10.7955 14.3181 10.8123 14.2686C10.8333 14.2191 10.8123 14.0887 10.7409 14.0483C10.7283 14.0393 10.7115 14.0348 10.6947 14.0348H10.6569C10.6569 14.0348 10.6233 14.0393 10.6065 14.0483C10.5687 14.0662 10.5393 14.0977 10.5183 14.1337L10.4931 14.1832L10.3839 14.1966L10.3461 14.1427C10.3125 14.0797 10.2663 14.0483 10.2075 14.0348H10.1613L10.1697 14.0303Z" fill="#231F20"/>
<path d="M2.80566 10.4458C2.80566 6.01086 6.16187 2.41699 10.3078 2.41699C14.4537 2.41699 17.8057 6.01086 17.8057 10.4458C17.8057 14.8808 14.4495 18.4747 10.3078 18.4747C6.16607 18.4747 2.80566 14.8763 2.80566 10.4458Z" stroke="#231F20" stroke-width="0.47" stroke-miterlimit="10"/>
<path d="M3.47754 10.2564C3.47754 6.22178 6.53551 2.94727 10.3034 2.94727C14.0712 2.94727 17.1292 6.21728 17.1292 10.2564C17.1292 14.2956 14.0754 17.5656 10.3034 17.5656C6.53131 17.5656 3.47754 14.2911 3.47754 10.2564Z" stroke="#231F20" stroke-width="0.33" stroke-miterlimit="10"/>
</svg>
