<svg width="21" height="20" viewBox="0 0 21 20" fill="none" xmlns="http://www.w3.org/2000/svg">
<g clip-path="url(#clip0_12138_10787)">
<g clip-path="url(#clip1_12138_10787)">
<path d="M19.4726 15.7764C19.0669 15.4804 18.974 15.3639 18.7205 14.7989C18.543 14.4223 18.5092 14.216 18.5092 13.5166C18.5092 13.0592 18.4669 12.6019 18.4162 12.4943C18.3063 12.2701 17.7063 11.9741 17.3683 11.9831H17.1148L17.326 12.1087C17.4444 12.1804 17.4866 12.2342 17.419 12.2432C17.3514 12.2432 16.8021 11.9921 16.1936 11.6962C14.9091 11.0505 14.5203 10.9698 14.1823 11.2567C13.9287 11.463 13.8611 11.9114 14.0386 12.2611C14.1231 12.4225 14.1063 12.4315 13.9287 12.3777C13.5315 12.2432 13.1935 11.741 12.9822 10.9519C12.8893 10.6111 12.847 10.5752 12.4667 10.4586C11.9935 10.3241 9.58491 10.2703 8.95109 10.3869C8.61305 10.4497 8.56226 10.4855 8.59615 10.629C8.6553 10.8622 9.0356 11.2567 9.33984 11.4002C9.58492 11.5168 9.58491 11.5168 9.38209 11.5168C9.11166 11.5258 8.54544 11.2478 8.07218 10.8891L7.70879 10.6111L7.12567 10.7097C6.81298 10.7725 6.01859 10.8084 5.36786 10.7994C4.48051 10.7815 4.10021 10.8173 3.84668 10.916C3.13679 11.2029 3.1537 11.2029 3.36497 11.0057C3.46638 10.907 3.75372 10.7546 3.9988 10.6739C4.23542 10.5932 4.49741 10.5035 4.56501 10.4855C4.66643 10.4497 4.65798 10.4138 4.52276 10.3331C4.42135 10.2703 3.9988 10.2255 3.42413 10.2345C2.47762 10.2345 1.48885 10.4048 -0.361923 10.8711C-0.868984 10.9967 -1.29998 11.0774 -1.32534 11.0505C-1.37604 10.9877 -1.23238 10.9519 0.888827 10.4048C2.66354 9.93853 3.51709 9.62466 4.27768 9.14042C5.64674 8.27057 6.03549 7.31105 5.83267 5.32923C5.78196 4.81808 5.71435 4.36971 5.69745 4.33384C5.62139 4.19933 5.81568 4.2621 6.17907 4.48629C6.67768 4.78221 7.26925 4.79118 7.72569 4.49526C8.0383 4.29797 8.08055 4.289 8.35098 4.41455C8.73981 4.58493 9.21299 4.50422 9.7792 4.18139C10.1087 3.99308 10.2271 3.95721 10.2609 4.04688C10.2863 4.10965 10.4722 4.19036 10.6835 4.21726C10.9877 4.27107 11.0722 4.31591 11.0722 4.45042C11.0722 4.68357 11.3764 4.82705 11.7398 4.77325C12.0271 4.71944 12.0524 4.73738 12.2131 5.09608C12.3061 5.29336 12.4497 5.50858 12.5427 5.55342C12.6272 5.60722 12.7877 5.74174 12.8975 5.85831C13.0075 5.96592 13.1511 6.0556 13.2102 6.0556C13.3878 6.0556 13.6074 6.45017 13.6074 6.75506C13.6074 7.05099 14.1229 7.61594 14.63 7.9029C15.5174 8.38715 16.6668 9.3108 17.8077 10.4676C18.6274 11.3016 19.0415 11.6154 19.3035 11.6154C19.3964 11.6154 19.7175 11.5078 20.0218 11.3823C20.7739 11.0595 21.5853 11.0505 22.2191 11.3554L22.667 11.5706H21.7965C20.7992 11.5706 20.3091 11.741 19.7936 12.2701C19.3035 12.7723 19.1429 13.1848 19.1429 13.9918C19.1429 14.763 19.2781 15.1486 19.7345 15.7315C20.0135 16.0723 19.912 16.0902 19.4726 15.7764ZM6.03549 9.81298C6.28902 9.59776 6.32274 9.30183 6.1031 9.01487C5.95098 8.81759 5.95098 8.81759 5.98478 9.18526C6.01014 9.49015 5.98479 9.57983 5.79041 9.77711C5.50308 10.0551 5.7059 10.091 6.03549 9.81298ZM8.49473 9.45428C8.86658 9.3108 9.27223 9.23906 10.0497 9.20319C11.1145 9.14939 11.3596 9.05074 10.9455 8.85346C10.6497 8.70998 10.5821 8.71895 10.785 8.88036C10.9286 8.99694 10.8695 9.00591 10.1511 9.01487C9.72013 9.01487 9.14555 9.07765 8.88348 9.14939C8.3596 9.29287 7.60738 9.6157 7.60738 9.70537C7.60738 9.76814 7.88626 9.6964 8.49473 9.45428ZM4.90306 9.23009C4.90306 9.14939 4.8439 9.10455 4.75939 9.12248C4.54811 9.16732 4.52276 9.37357 4.72558 9.37357C4.827 9.37357 4.90306 9.31977 4.90306 9.23009ZM13.9879 7.94774C13.9118 7.80426 12.6695 7.33795 11.9681 7.18551C11.6047 7.1048 11.2329 6.99719 11.1484 6.95235C11.0639 6.89854 10.9034 6.86267 10.7766 6.86267C10.6583 6.86267 10.54 6.80887 10.5146 6.73713C10.4808 6.64745 10.3624 6.62952 10.0921 6.66539C9.81309 6.69229 9.67796 6.66539 9.5512 6.54881C9.40753 6.40533 9.37372 6.40533 9.19625 6.53984C8.97653 6.70126 8.28354 6.73713 8.13988 6.58468C8.07227 6.51294 7.97939 6.53088 7.79338 6.62952C7.44681 6.81784 7.25252 6.80887 6.98201 6.58468C6.80453 6.43223 6.76228 6.42327 6.76228 6.53984C6.76228 6.62055 6.62706 6.83577 6.46649 7.03306C6.30592 7.22137 6.17071 7.39176 6.17071 7.41866C6.17071 7.43659 6.44959 7.37382 6.78763 7.27518C7.29469 7.1317 7.65808 7.09583 9.04405 7.09583C10.5145 7.09583 10.8019 7.12273 11.7484 7.33795C12.3315 7.4635 13.0752 7.66975 13.3963 7.79529C13.7259 7.91187 13.9963 8.01948 14.0132 8.01948C14.0301 8.02845 14.0217 7.99258 13.9879 7.94774Z" fill="#232323"/>
</g>
</g>
<defs>
<clipPath id="clip0_12138_10787">
<rect width="20" height="20" fill="white" transform="translate(0.666992)"/>
</clipPath>
<clipPath id="clip1_12138_10787">
<rect width="24" height="12" fill="white" transform="translate(-1.33301 4)"/>
</clipPath>
</defs>
</svg>
