<svg width="20" height="20" viewBox="0 0 20 20" fill="none" xmlns="http://www.w3.org/2000/svg">
<path d="M9.50401 3.18547C9.59929 3.36846 9.75457 3.51626 9.78986 3.54441C9.624 3.70981 9.52519 3.98077 9.53225 4.16728C9.35227 4.17432 9.21111 4.14968 9.09113 3.98781C9.14406 3.60072 9.36285 3.32271 9.50401 3.18547ZM9.48637 5.1702C9.31345 5.00129 9.20052 4.81478 9.12995 4.58253C9.20405 4.61772 9.32051 4.64939 9.48284 4.64939C9.55342 4.64939 9.59576 4.63531 9.63458 4.62124C9.68752 4.74088 9.86397 4.93091 9.99454 4.99777C9.95219 5.10334 9.94513 5.28281 9.93102 5.47284C9.76516 5.40598 9.61341 5.30393 9.48637 5.17372M10.0545 4.88164C9.90631 4.80071 9.79692 4.6705 9.74045 4.54382C9.80397 4.48047 9.87102 4.35027 9.87102 4.18136C9.87102 3.95614 9.84985 3.94558 9.77221 3.77315C9.79339 3.73444 9.84632 3.66758 9.8922 3.62183C9.95219 3.64998 10.0369 3.66054 10.0828 3.60072C10.1498 3.59016 10.2274 3.57608 10.2133 3.4494C10.231 3.47755 10.3086 3.53033 10.4392 3.53033C10.5415 3.53033 10.6827 3.50218 10.8097 3.45995C11.0567 3.57256 11.2755 3.84001 11.2755 4.19895C11.2755 4.48751 11.1273 4.72681 10.9015 4.87109C10.8803 4.83942 10.8027 4.75848 10.6968 4.75848C10.6121 4.75848 10.5733 4.80071 10.5027 4.80071C10.4215 4.80071 10.4039 4.75848 10.3051 4.75848C10.1639 4.75848 10.0969 4.8359 10.0545 4.88516M11.0003 5.4658C10.9968 5.29689 10.9932 5.10686 10.9544 4.98018C11.0356 4.93091 11.4026 4.69513 11.4026 4.17784C11.4026 3.82945 11.1944 3.53737 10.9721 3.40717C11.1132 3.36142 11.3144 3.28048 11.4555 3.2101C11.7025 3.46347 11.8578 3.78019 11.8578 4.18136C11.8578 4.75848 11.512 5.25818 11.0003 5.4658ZM11.2014 5.18076C11.152 5.18076 11.1062 5.15261 11.1062 5.0963C11.1062 5.04 11.1344 5.01185 11.1697 4.98018C11.2791 4.86405 11.5296 4.63531 11.5296 4.16728C11.5296 3.90335 11.4238 3.72388 11.3638 3.61831C11.3426 3.58312 11.2826 3.51274 11.2826 3.45995C11.2826 3.40013 11.325 3.36494 11.3814 3.36494C11.4379 3.36494 11.4696 3.41069 11.5085 3.46347C11.5685 3.54089 11.7343 3.81538 11.7343 4.1708C11.7343 4.64939 11.5049 4.92035 11.4167 5.02592C11.4061 5.04 11.2897 5.18076 11.2014 5.18076ZM9.78633 5.23003C9.74045 5.23003 9.71222 5.20539 9.67693 5.18076C9.57812 5.1139 9.44402 4.95202 9.40873 4.88868C9.40167 4.87461 9.39814 4.85701 9.39814 4.83942C9.39814 4.77959 9.45108 4.74088 9.50049 4.74088C9.5393 4.74088 9.57459 4.762 9.59576 4.79367C9.61341 4.82182 9.71575 4.9661 9.82515 5.03648C9.84279 5.04704 9.88161 5.07519 9.88161 5.1315C9.88161 5.19836 9.83574 5.23355 9.78633 5.23355M9.33109 4.01596C9.26757 4.01596 9.23582 3.95966 9.23582 3.92095C9.23582 3.84353 9.29933 3.67461 9.34874 3.59368C9.37697 3.54441 9.42285 3.48107 9.4899 3.48107C9.53578 3.48107 9.57812 3.51626 9.57812 3.57608C9.57812 3.61479 9.54989 3.65702 9.5393 3.67461C9.49343 3.76259 9.4652 3.83649 9.44049 3.92447C9.42638 3.97373 9.38756 4.01596 9.33109 4.01596ZM9.43344 3.06934C9.4052 3.09749 9.39461 3.10453 9.3805 3.11509C9.12288 2.81245 8.87233 2.55556 8.87233 2.15791C8.87233 2.08753 8.94291 2.02419 9.04878 2.02419C9.137 2.02419 9.20405 2.05938 9.25346 2.07697C9.2711 2.1931 9.25699 2.74559 9.43344 3.06934ZM9.99806 13.4892C9.99806 13.5666 9.94866 13.6229 9.87455 13.6229C9.80045 13.6229 9.74751 13.542 9.74751 13.4822L9.79339 13.0669C9.86397 12.993 9.93455 12.5918 9.96984 12.5883L9.99454 13.4927M10.5874 13.5701C10.5874 13.6405 10.5451 13.7039 10.4639 13.7039C10.3721 13.7039 10.3192 13.6405 10.3227 13.5666L10.3404 12.8452C10.3898 12.8276 10.4921 12.2083 10.5168 12.1062L10.5874 13.5666M10.3157 7.30274C10.2663 7.31682 10.2239 7.70039 10.1851 7.70039C10.1851 7.70039 10.1851 7.65112 10.1851 7.6476L10.231 5.38487V5.1702C10.2345 5.13501 10.2663 5.10334 10.3016 5.10686C10.3404 5.10686 10.3686 5.13853 10.3651 5.17724L10.3121 7.30626L10.3157 7.30274ZM10.665 9.76254L10.5698 5.17724C10.5698 5.14205 10.5945 5.10334 10.6403 5.10334C10.6827 5.10334 10.7003 5.13501 10.7039 5.18428L10.8238 9.43176C10.7744 9.44935 10.7003 9.75903 10.6615 9.76606M15.5279 5.37783C15.5668 5.30745 15.7538 5.22651 15.7538 4.97666C15.7538 4.86757 15.7291 4.74088 15.7185 4.67754C15.7114 4.61772 15.6832 4.53326 15.595 4.49807C15.5456 4.48047 15.4856 4.46288 15.3656 4.46288C15.2456 4.46288 15.0339 4.49807 14.8751 4.56141C14.5081 4.70569 14.1516 4.9837 14.014 5.09982C13.9293 5.1702 13.8093 5.26874 13.7317 5.26874C13.5905 5.26874 13.5517 5.10334 13.5517 4.96258C13.5517 4.62475 13.6117 4.42065 13.6117 4.42065C13.6117 4.42065 13.9046 4.26229 14.1411 4.13913C14.2293 4.09338 14.2999 4.05115 14.2999 3.91743C14.2999 3.86464 14.2646 3.80482 14.2434 3.77667C14.1728 3.68165 13.7952 3.25937 13.3859 3.25937C12.673 3.25937 12.8248 4.06523 12.6448 4.301C12.6448 4.301 12.6942 4.04763 12.6554 3.86464C12.5248 3.53033 12.1507 3.23474 11.6637 3.23474C11.632 3.19955 11.6037 3.16436 11.5826 3.13972C11.7802 3.02711 12.0025 2.91802 12.0025 2.67521C12.0025 2.55908 11.999 2.42184 11.879 2.29515C11.7696 2.18254 11.572 2.00659 11.2367 1.82008C11.0638 1.72507 10.8874 1.65117 10.7391 1.65117C10.4709 1.65117 10.4286 1.79545 10.3263 2.01715C10.2804 2.11216 10.1851 2.4148 10.1745 2.68929C10.1216 2.69984 10.0369 2.72096 9.97689 2.74207C9.88867 2.62242 9.87102 2.49926 9.87102 2.31275C9.87102 2.16847 9.89573 1.96436 9.89573 1.7673C9.89573 1.61598 9.89572 1.61246 9.73339 1.46466C9.57812 1.3239 9.5146 1.25 9.42638 1.25C9.0276 1.25 8.6006 2.49574 8.61825 2.84764C8.62884 3.03415 8.69941 3.12213 8.8194 3.27696C8.84057 3.3016 8.99232 3.45995 9.08054 3.56201C9.04172 3.63591 9.0029 3.76963 8.98878 3.83649C8.97114 3.8189 8.91115 3.74851 8.7947 3.60072C8.67471 3.45292 8.56178 3.47403 8.51591 3.47403C8.3571 3.47403 8.09243 3.59368 8.00421 3.64998C7.87364 3.73092 7.69013 3.86464 7.56662 3.97725C7.48898 4.05115 7.39017 4.18488 7.39017 4.34323C7.39017 4.47695 7.56309 4.77607 7.56309 4.77607C7.57015 4.79015 7.60191 4.86053 7.70425 4.86053C7.74659 4.86053 7.796 4.84645 7.84541 4.84645C7.88776 4.84645 7.91951 4.85701 7.91951 4.89924C7.91951 4.95202 7.87717 4.99073 7.75365 5.0576C7.7113 5.08223 7.37606 5.27578 7.08315 5.39894C6.93141 5.4658 6.77613 5.50451 6.73026 5.67695C6.6985 5.79307 6.59616 6.06052 6.41266 6.18721C6.34913 6.13794 6.09152 5.81771 6.09152 5.27929C6.09152 5.21595 6.11622 5.12446 6.11622 5.05408C6.11622 4.99777 6.09505 4.95906 6.04917 4.93443C5.98212 4.89572 5.86919 4.81126 5.72098 4.70569C5.69628 4.6881 5.64334 4.65291 5.59041 4.65291C5.57276 4.65291 5.54806 4.65643 5.51983 4.68106C5.27281 4.9098 4.81051 4.92035 4.61642 4.92035C4.30234 4.92035 4.10472 5.04704 4.10472 5.29337C4.10472 5.43061 4.32705 5.78252 4.37292 5.88105C4.23882 5.81419 3.9318 5.45525 3.48363 5.45525C3.14485 5.45525 2.89429 5.69806 2.80254 5.79659C2.77078 5.82826 2.72843 5.92328 2.72843 5.97606C2.72843 6.15905 2.84136 6.20128 3.13073 6.38427C2.91547 6.40187 2.51317 6.47929 2.37554 6.69043C2.30496 6.79952 2.27673 6.92972 2.28731 7.02122C2.35789 6.94028 2.55551 6.80304 2.55551 6.80304C2.55551 6.80304 2.67902 7.05993 2.92958 7.12679C2.91899 6.96491 2.95075 6.81007 3.15543 6.67283C3.3707 6.53207 3.49774 6.47929 3.57891 6.43354C3.62126 6.41242 3.68831 6.37371 3.68831 6.28574C3.68831 6.19072 3.58597 6.12386 3.5295 6.07812C3.49422 6.04996 3.24366 5.88809 3.24366 5.88809C3.34952 5.89864 3.43422 5.9268 3.50127 5.95847C3.6142 5.90216 3.69537 5.88457 3.8824 5.88457C4.05179 5.88457 4.25647 6.03589 4.41527 6.03589C4.61289 6.03589 4.8211 5.96199 4.8211 5.79659C4.8211 5.67343 4.67994 5.53618 4.67994 5.44821C4.67994 5.37783 4.73993 5.36727 4.78934 5.36727C4.91638 5.36727 4.99755 5.38838 5.20928 5.38838C5.55512 5.38838 5.79509 5.13501 5.84802 5.08575C5.83038 5.15261 5.74568 5.27929 5.60452 5.37431C5.63275 5.59249 5.68216 5.83178 5.72451 5.95847C5.77391 6.11331 5.86214 6.30333 6.17268 6.30333C6.26797 6.30333 6.4056 6.25055 6.44089 6.23647C6.46559 6.24351 6.54675 6.31037 6.67027 6.31037C6.82554 6.31037 6.91729 6.25055 6.99846 6.15202C7.05492 6.08867 7.07962 5.98662 7.27019 5.89161C7.53486 5.7614 8.00421 5.52211 8.29005 5.32856C8.39945 5.25466 8.55472 5.1702 8.55472 4.99777C8.55472 4.8359 8.44885 4.70569 8.28299 4.70569C8.2477 4.70569 8.19477 4.71625 8.16301 4.71625C8.08537 4.71625 8.04656 4.62827 8.02186 4.58604C7.96892 4.49807 7.94422 4.43825 7.94422 4.36083C7.94422 4.30804 7.97245 4.26581 7.99362 4.24118C8.12067 4.10042 8.39239 3.97373 8.52649 3.97373C8.60413 3.97373 8.63589 4.03356 8.65707 4.06523C8.69941 4.13561 8.85469 4.36083 8.96056 4.46992C9.0629 5.04704 9.46872 5.44117 9.90984 5.59953C9.85691 6.3526 9.76163 7.87634 9.66987 9.30507C9.57106 10.9062 9.41932 13.3273 9.41932 13.4259C9.41932 13.6792 9.50048 13.7355 9.62047 13.7954C9.66282 13.8165 9.84985 13.8904 10.1145 13.8552C10.3368 14.01 10.6933 13.9256 10.8344 13.813C11.0144 13.8341 11.1026 13.8165 11.1485 13.8094C11.3073 13.7742 11.4626 13.7003 11.4414 13.3871C11.4379 13.3133 11.3144 11.1631 11.3144 11.1631C11.2085 9.25229 11.0673 6.72914 11.0003 5.60305C11.7908 5.28281 11.9778 4.58956 11.9778 4.18488C11.9778 4.01948 11.946 3.84001 11.9108 3.73092C12.1507 3.77315 12.3695 4.05819 12.4189 4.42769C12.433 4.5227 12.3978 4.84293 12.553 4.87461C12.5813 4.88164 12.7118 4.88868 12.8424 4.73032C12.9765 4.57197 13.0012 4.41009 13.04 4.19191C13.0577 4.0969 13.0859 3.94558 13.1035 3.87168C13.1247 3.79778 13.1565 3.70981 13.2659 3.70981C13.3859 3.70981 13.5799 3.82593 13.6152 3.84353C13.6717 3.87872 13.7246 3.93502 13.7246 3.99485C13.7246 4.0969 13.5694 4.33971 13.5694 4.33971C13.1918 4.60012 13.0188 4.93795 13.0188 5.31449C13.0188 5.65231 13.2129 5.86345 13.5552 5.86345C13.6752 5.86345 13.8693 5.81771 14.1305 5.65583C14.4869 5.43413 15.0198 4.98721 15.3832 4.98721C15.4115 4.98721 15.4326 4.98721 15.4326 4.99777C15.4326 5.01185 15.4115 5.01537 15.3868 5.0224C15.3409 5.03648 15.2703 5.0576 15.2103 5.08575C15.1644 5.14557 15.0621 5.25818 15.0621 5.42709C15.0621 5.73677 15.4221 5.97606 15.9126 5.97606C16.2267 5.97606 16.4419 5.88809 16.5831 5.82826C16.7878 5.74381 16.9078 5.69454 17.0666 5.69454C17.2571 5.69454 17.3912 5.76844 17.6065 5.9092C17.6065 5.69454 17.4865 5.55026 17.3524 5.44117C17.4265 5.41654 17.5783 5.3919 17.6559 5.39542C17.5077 5.20891 17.2289 5.07871 16.996 5.07871C16.5901 5.07871 16.4349 5.47636 15.8561 5.47636C15.6338 5.47636 15.5103 5.38487 15.5103 5.38487M11.0179 13.5314C10.9262 13.5314 10.8979 13.4611 10.8944 13.4188L10.9015 12.8734C10.9721 12.7784 11.0003 12.4863 11.0356 12.4757L11.1309 13.4153C11.1344 13.4646 11.1097 13.5314 11.0179 13.5314ZM5.59394 4.70569C5.63981 4.70569 5.66099 4.72681 5.69628 4.74792C5.74216 4.77959 5.82332 4.83942 5.86567 4.86053C5.92566 4.8922 5.97153 4.9098 6.01388 4.92387C5.95389 4.92387 5.91507 4.95554 5.90095 4.96962C5.86566 5.00129 5.82685 5.01889 5.78097 5.01889C5.72098 5.01889 5.64334 4.99777 5.53042 4.92739C5.49513 4.90628 5.4316 4.86405 5.39984 4.84293C5.52689 4.79015 5.54101 4.70569 5.59747 4.70569M8.28653 4.73032C8.40298 4.73032 8.49826 4.8359 8.49826 4.97314C8.49826 5.02241 8.47709 5.10686 8.40298 5.1702C8.38181 5.1878 8.37475 5.1878 8.36063 5.1878C8.33593 5.1878 8.30064 5.16669 8.26888 5.14557C8.19124 5.0963 8.05362 5.01185 8.02186 4.99425C8.10302 4.95554 8.28299 4.89924 8.28299 4.80774C8.28299 4.77607 8.26535 4.75144 8.24065 4.73736C8.25124 4.73736 8.27947 4.73736 8.28653 4.73736M4.59524 5.42006C4.54937 5.42006 4.35528 5.318 4.28823 5.28633C4.22471 5.25466 4.17177 5.23355 4.17177 5.1702C4.17177 5.10686 4.27411 5.01889 4.33763 5.01889C4.40115 5.01889 4.42938 5.06815 4.4682 5.11038C4.50702 5.15613 4.63053 5.28985 4.64465 5.30393C4.65171 5.31097 4.66935 5.34264 4.66935 5.34968C4.66935 5.3919 4.64465 5.42006 4.59524 5.42006ZM9.68752 1.8975C9.6487 2.02771 9.55342 2.3585 9.55342 2.70688C9.55342 3.02359 9.72281 3.16436 9.72281 3.20658C9.72281 3.22418 9.70516 3.22418 9.69811 3.22418C9.63106 3.22418 9.34521 2.82301 9.35932 2.07345C9.47578 2.05586 9.57106 2.01011 9.68752 1.89398M10.4251 3.31567C10.4039 3.31567 10.3474 3.2277 10.3474 3.10453C10.3474 2.99192 10.4039 2.88283 10.4462 2.81949C10.6015 2.59779 10.8697 2.22125 10.9156 2.15791C11.0038 2.03826 11.0885 2.02771 11.1485 2.02771C11.3426 2.02771 11.7167 2.36553 11.7167 2.52037C11.7167 2.5802 11.6884 2.61187 11.632 2.64002C11.6531 2.62594 11.6637 2.59075 11.6637 2.55556C11.6637 2.44999 11.3885 2.16847 11.1909 2.16847C11.0956 2.16847 11.032 2.23533 10.9438 2.33738C10.905 2.38313 10.5521 2.81597 10.4956 2.89691C10.4251 2.99544 10.4039 3.07286 10.4039 3.14676C10.4039 3.24529 10.4321 3.27344 10.4321 3.30512C10.4321 3.30864 10.4321 3.31215 10.4251 3.31215M7.01964 5.57489C7.06198 5.61008 7.17844 5.71214 7.21726 5.74381C7.2349 5.75788 7.25254 5.76844 7.25254 5.79307C7.25254 5.81067 7.2349 5.81771 7.22431 5.82475C7.15726 5.87401 7.12903 5.92328 7.09727 5.96199C7.03728 5.91976 6.87142 5.78955 6.8326 5.75085C6.79378 5.71214 6.78319 5.6875 6.78319 5.65231C6.78319 5.59953 6.82907 5.53267 6.91377 5.53267C6.9667 5.53267 6.98787 5.55378 7.0161 5.57489M13.1565 3.72036C13.1318 3.69573 13.0435 3.58664 13.0224 3.56201C13.0047 3.53385 12.9941 3.5057 12.9941 3.48107C12.9941 3.39661 13.1565 3.32271 13.2976 3.32271C13.3717 3.32271 13.3929 3.36494 13.3929 3.39661C13.3929 3.42124 13.3859 3.44236 13.3823 3.45643C13.3717 3.49866 13.3576 3.55145 13.347 3.58664C13.3329 3.63239 13.3153 3.64294 13.287 3.64294C13.22 3.64294 13.1706 3.67813 13.1529 3.71684M15.4115 4.5403C15.4679 4.5403 15.5032 4.55085 15.5315 4.56141C15.602 4.57901 15.6338 4.61772 15.655 4.68458C15.6691 4.72681 15.7185 4.88164 15.7185 4.99425C15.7185 5.05056 15.7114 5.08223 15.7008 5.10334C15.7079 5.06111 15.6514 4.91683 15.4538 4.91683C15.4362 4.91683 15.3974 4.92035 15.3903 4.87812C15.3797 4.81478 15.348 4.65643 15.3444 4.6142C15.3409 4.56845 15.3727 4.54382 15.4115 4.54382M13.1212 5.47988C13.1212 5.43413 13.1494 5.3919 13.1882 5.35671C13.2623 5.28633 13.4459 5.14909 13.52 5.10334C13.5129 5.15965 13.527 5.22299 13.5623 5.27929C13.5729 5.30041 13.6082 5.34264 13.6082 5.37079C13.6082 5.3919 13.6047 5.4095 13.58 5.44821C13.5164 5.55026 13.4776 5.59601 13.4282 5.64879C13.4 5.68046 13.3541 5.70158 13.3153 5.70158C13.2235 5.70158 13.1247 5.62064 13.1247 5.4834M11.1238 2.81597C11.0603 2.78782 10.9615 2.74207 10.8274 2.7104C10.9756 2.53093 11.0532 2.41128 11.1379 2.41128C11.265 2.41128 11.392 2.55204 11.392 2.65058C11.392 2.73855 11.3285 2.7667 11.1238 2.81597Z" fill="#1D2A47"/>
<path d="M14.0536 11.1001C14.043 11.1247 14.0183 11.181 13.9371 11.181C13.8348 11.181 13.8454 11.079 13.856 11.0297C13.8772 10.9417 13.916 10.8502 13.8983 10.6707C13.8877 10.5863 13.8525 10.4878 13.8489 10.4244C13.8489 10.3822 13.8595 10.354 13.8983 10.354C14.0007 10.354 13.8842 10.7411 14.1277 10.8009C14.1312 10.9241 14.0783 11.0297 14.0465 11.1036M13.6866 10.1288C13.6654 10.0795 13.6019 9.97046 13.5278 9.97749C13.4255 9.98101 13.4678 10.0971 13.4996 10.1534C13.6125 10.3435 13.5843 10.6144 13.5596 10.7024C13.5419 10.7693 13.5454 10.8256 13.609 10.8256C13.7395 10.8256 13.7501 10.6144 13.7501 10.4878C13.7501 10.3716 13.7289 10.2414 13.6866 10.1323M14.7029 10.7482C14.6606 10.6637 14.6253 10.6391 14.5688 10.6391C14.5053 10.6391 14.4735 10.7059 14.4877 10.7904C14.5018 10.8748 14.5088 10.9417 14.5088 11.0051C14.5088 11.1388 14.463 11.2162 14.4594 11.269C14.4594 11.2901 14.47 11.3816 14.5829 11.3816C14.6959 11.3816 14.7523 11.2268 14.7523 11.0825C14.7523 10.9558 14.7418 10.8221 14.7065 10.7517M13.2737 10.0795C13.2314 9.93175 13.1608 9.83673 13.062 9.7382C13.009 9.68541 12.9773 9.65374 12.9314 9.65374C12.8996 9.65374 12.882 9.67486 12.8855 9.70301C12.8855 9.72412 12.8855 9.74876 12.9138 9.78043C12.9949 9.87896 13.1079 10.0092 13.1079 10.2731C13.1079 10.3329 13.0796 10.4455 13.0796 10.4737C13.0796 10.5194 13.0973 10.5405 13.122 10.5441C13.1573 10.5546 13.2067 10.5265 13.2243 10.4913C13.2772 10.4033 13.3161 10.2273 13.2737 10.076M15.9839 12.476C15.9239 12.476 15.8887 12.5042 15.8887 12.5569C15.8887 12.6097 15.9345 12.6203 16.0016 12.6379C16.0792 12.659 16.118 12.7188 16.118 12.7892C16.118 12.8596 16.0545 12.9194 15.9663 12.9194C15.8992 12.9194 15.8463 12.8877 15.8146 12.8068C15.7899 12.7399 15.7651 12.7223 15.7193 12.7223C15.6381 12.7223 15.6275 12.7998 15.6346 12.842C15.6522 12.9616 15.7475 13.1305 15.9804 13.1305C16.1674 13.1305 16.3227 12.9898 16.3227 12.8244C16.3227 12.5605 16.1216 12.4795 15.9839 12.4795M15.1052 12.198C15.0876 12.103 15.0276 12.0748 14.9888 12.0748C14.9111 12.0748 14.9076 12.1558 14.9394 12.2367C15.0064 12.4127 14.9041 12.5675 14.83 12.652C14.8053 12.6766 14.7982 12.6977 14.7982 12.7118C14.7982 12.7399 14.8194 12.7575 14.8547 12.7575C14.89 12.7575 14.9041 12.7364 14.9147 12.7294C15.0805 12.5851 15.1476 12.4091 15.1088 12.198M12.695 9.76283C12.6279 9.55169 12.455 9.28776 12.3032 9.28776C12.275 9.28776 12.2362 9.31943 12.2362 9.36166C12.2362 9.40037 12.275 9.44964 12.3668 9.55873C12.5291 9.75579 12.575 10.0268 12.5609 10.2696C12.5573 10.3188 12.6032 10.3681 12.6561 10.3364C12.7938 10.252 12.755 9.9423 12.702 9.76635M10.9234 9.24201C10.9587 9.28072 10.9869 9.31943 11.0152 9.36166C11.0258 9.37926 11.1352 9.62207 11.2446 9.62207C11.5128 9.62207 11.2481 9.2209 11.1669 9.11181C11.0999 9.02032 11.0187 8.93234 10.9234 8.85844V9.24201ZM16.3968 13.6514C16.2204 13.6514 16.1286 13.7675 16.1286 13.8871C16.1286 14.0807 16.2486 14.1651 16.3333 14.1651C16.3792 14.1651 16.3862 14.137 16.3862 14.1194C16.3862 14.0349 16.298 13.9997 16.298 13.9153C16.298 13.8379 16.351 13.8097 16.3968 13.8097C16.4251 13.8097 16.4498 13.8203 16.4815 13.8203C16.5239 13.8203 16.5486 13.7956 16.5486 13.764C16.5486 13.6866 16.4709 13.6478 16.3968 13.6478M16.0333 14.0173C16.0333 13.8625 15.9134 13.7816 15.8004 13.7816C15.6169 13.7816 15.4899 13.9505 15.4899 14.0385C15.4899 14.0525 15.4969 14.0736 15.5181 14.0736C15.5711 14.0736 15.6134 13.9434 15.7616 13.9434C15.8322 13.9434 15.8745 13.9822 15.8745 14.0701C15.8745 14.1159 15.9063 14.1405 15.9451 14.1405C15.9945 14.1405 16.0298 14.0983 16.0298 14.0209M16.3545 14.4009C16.2733 14.4009 16.2416 14.4467 16.2416 14.4643C16.2416 14.4854 16.2521 14.5065 16.2768 14.51C16.3933 14.5241 16.4462 14.5909 16.4462 14.6613C16.4462 14.6965 16.4356 14.7317 16.4109 14.7669C16.4109 14.7704 16.4039 14.781 16.4039 14.788C16.4039 14.8021 16.4145 14.8162 16.4498 14.8162C16.5309 14.8162 16.5874 14.7352 16.5874 14.6508C16.5874 14.5382 16.5309 14.3974 16.358 14.3974M16.1921 14.3446C16.231 14.3341 16.2521 14.3129 16.2521 14.2848C16.2521 14.2426 16.2204 14.1757 16.1216 14.1757C15.9239 14.1757 15.8428 14.3481 15.8428 14.517C15.8428 14.6473 15.9098 14.781 15.9698 14.8408C16.0333 14.9006 16.1251 14.9358 16.171 14.9358C16.1886 14.9358 16.2133 14.9288 16.2133 14.9077C16.2133 14.8654 16.1604 14.8584 16.1216 14.8126C15.9875 14.6613 15.9875 14.4009 16.1921 14.3446ZM14.3606 13.5704C14.3253 13.5704 14.2865 13.5915 14.2477 13.6232C14.0889 13.7534 13.8207 13.764 13.7607 13.7605C13.6972 13.7534 13.6654 13.7745 13.6619 13.7992C13.6584 13.8238 13.6866 13.8555 13.7395 13.8731C13.8066 13.8942 13.8983 13.9047 13.9583 13.9047C14.1524 13.9047 14.2477 13.8449 14.35 13.7675C14.3783 13.7429 14.4418 13.683 14.4418 13.6373C14.4418 13.5915 14.3924 13.5669 14.3642 13.5669M10.9234 8.60859C11.0364 8.68953 11.121 8.78806 11.1528 8.84085C11.2022 8.92178 11.2516 9.00624 11.3469 8.99568C11.4316 8.98513 11.4175 8.88307 11.3751 8.80214C11.3328 8.7212 11.2551 8.65785 11.2481 8.61563C11.241 8.58747 11.2834 8.55228 11.3151 8.55228C11.5128 8.55228 11.7245 8.9429 11.7316 9.09773C11.7316 9.12941 11.7174 9.16811 11.6645 9.16811C11.6151 9.16811 11.5657 9.11885 11.5233 9.11885C11.4916 9.11885 11.4457 9.14348 11.4457 9.18571C11.4457 9.24201 11.4845 9.27721 11.5657 9.30184C11.7704 9.36518 11.8727 9.49539 11.8762 9.63263C11.8762 9.69245 11.8551 9.82266 11.9504 9.82266C12.0103 9.82266 12.0633 9.73468 12.0633 9.63967C12.0633 9.49539 11.9927 9.36518 11.9186 9.28424C11.9892 9.09773 11.8304 8.71416 11.6575 8.55932C11.9433 8.50302 12.0492 8.82677 12.0739 8.99216C12.0809 9.04495 12.088 9.24553 12.1938 9.24553C12.3209 9.24553 12.328 9.04495 12.275 8.88307C12.3068 8.87252 12.3632 8.85844 12.4232 8.85844C12.7726 8.85844 12.8573 9.31591 12.9138 9.69597C12.9279 9.78746 12.9667 9.84377 13.0479 9.84377C13.122 9.84377 13.1573 9.78395 13.1573 9.72764C13.1573 9.63967 13.0937 9.52354 13.0373 9.38278C12.9914 9.27369 13.0373 9.17515 13.1361 9.17515C13.3655 9.17515 13.4713 9.53761 13.5172 9.70653C13.5419 9.79802 13.5666 9.90007 13.6548 9.90007C13.7219 9.90007 13.7607 9.85785 13.7607 9.78395C13.7607 9.71005 13.7254 9.59744 13.7007 9.52706C13.7325 9.50946 13.7854 9.49539 13.8066 9.49539C14.0536 9.49539 14.163 9.68893 14.163 9.86488C14.163 10.0056 14.103 10.1323 14.0501 10.1992C14.1595 10.3294 14.2124 10.4983 14.2371 10.6637C14.2442 10.72 14.2759 10.7974 14.3289 10.7974C14.3994 10.7974 14.4347 10.727 14.4347 10.6144C14.4347 10.5194 14.3642 10.3153 14.2759 10.1816C14.3324 10.0971 14.3571 9.97397 14.3571 9.91415C14.5406 9.94934 14.5547 10.1534 14.5547 10.2977C14.5547 10.347 14.5265 10.4244 14.5265 10.4385C14.5265 10.4948 14.5477 10.5617 14.6253 10.5617C14.6853 10.5617 14.7347 10.5089 14.7347 10.3505C14.7347 10.2766 14.717 10.1922 14.7206 10.1605C14.7206 10.1323 14.7276 10.0971 14.8088 10.0971C14.9711 10.0971 15.1264 10.2661 15.1264 10.3787C15.1264 10.4702 15.0488 10.4807 15.0205 10.4807C14.9041 10.4807 14.8688 10.5159 14.8688 10.5722C14.8688 10.6637 14.9358 10.6778 14.9888 10.6778C15.0311 10.6778 15.137 10.6426 15.2076 10.6426C15.3628 10.6426 15.4828 10.7482 15.4652 10.9206C15.4899 10.91 15.5605 10.8819 15.5887 10.8819C15.7899 10.8819 15.8992 11.0086 15.871 11.1141C15.7334 11.1141 15.5922 11.2232 15.6628 11.3745C15.7016 11.3112 15.7863 11.269 15.8781 11.269C15.9945 11.269 16.118 11.3288 16.1533 11.4801C16.0898 11.4485 16.0192 11.4309 15.9522 11.4344C15.7934 11.4344 15.6452 11.5259 15.6134 11.7018C15.5111 11.6666 15.3911 11.635 15.3911 11.364C15.3911 11.2021 15.3029 11.1282 15.1582 11.1282C15.0911 11.1282 15.0523 11.086 15.0523 11.0121C15.0523 10.9734 15.0876 10.9628 15.1158 10.9628C15.1652 10.9628 15.204 11.0297 15.2429 11.0297C15.2958 11.0297 15.3134 10.9945 15.3134 10.9663C15.3134 10.8185 15.1158 10.7904 15.01 10.7904C14.9782 10.7904 14.8794 10.808 14.8476 10.815C14.8864 10.9206 14.9006 11.0367 14.9006 11.1317C14.9006 11.5399 14.7453 11.6701 14.7453 11.8144C14.7453 11.8778 14.7876 11.92 14.8582 11.92C14.95 11.92 15.1123 11.7265 15.1123 11.3394C15.1123 11.3394 15.2711 11.3992 15.2711 11.5927C15.2711 11.7652 15.1335 11.8074 15.1335 11.9552C15.1335 12.008 15.1617 12.0678 15.2358 12.0678C15.4052 12.0678 15.3946 11.737 15.5111 11.7898C15.6028 11.832 15.444 11.9587 15.444 12.0748C15.444 12.1241 15.4864 12.1734 15.5463 12.1734C15.624 12.1734 15.6522 12.2226 15.6522 12.2789C15.6522 12.3951 15.5111 12.4549 15.3875 12.5042C15.3205 12.5323 15.2993 12.564 15.2993 12.6238C15.2993 12.6414 15.2993 12.6625 15.3064 12.6731C15.2499 12.7681 15.1123 12.9018 14.8794 12.9405C14.7665 12.9581 14.7806 13.1411 14.9817 13.0883C15.01 13.0813 15.0488 13.0602 15.0946 13.0355C15.0982 13.0355 15.1158 13.0215 15.137 13.0215C15.1758 13.0215 15.1864 13.0566 15.1864 13.0778C15.1864 13.2748 14.8159 13.2572 14.8159 13.4332C14.8159 13.5106 14.8829 13.5282 14.9288 13.5282C15.0311 13.5282 15.1652 13.4121 15.2111 13.3663C15.2217 13.391 15.2464 13.4402 15.2464 13.5176C15.2464 13.6725 15.1123 13.8801 14.9358 13.8801C14.8264 13.8801 14.8476 13.8273 14.7347 13.8273C14.6218 13.8273 14.65 13.954 14.5053 14.0209C14.4594 14.042 14.403 14.049 14.343 14.049C14.2124 14.049 14.0642 14.0103 13.9619 13.9892C13.916 13.9786 13.8807 13.9962 13.8807 14.049C13.8807 14.0807 13.9124 14.1264 13.9513 14.1863C14.0077 14.2742 14.1348 14.2742 14.1948 14.2742C14.5124 14.2742 14.7065 14.225 14.7665 13.9857C14.7665 13.9716 14.777 13.9681 14.7876 13.9681C14.8229 13.9716 14.8617 14.0244 14.9676 14.0244C15.1264 14.0244 15.2111 13.9223 15.257 13.8414C15.2358 13.8801 15.2182 13.9294 15.2182 13.9962C15.2182 14.0314 15.2287 14.1968 15.3346 14.1968C15.4123 14.1968 15.4052 14.1335 15.4052 14.1159C15.3875 13.859 15.5111 13.7569 15.6593 13.6971C15.6981 13.6795 15.7863 13.683 15.7863 13.6232C15.7863 13.5704 15.744 13.5247 15.6734 13.5247C15.5605 13.5247 15.4581 13.5669 15.384 13.6408C15.3911 13.5669 15.3628 13.5071 15.3205 13.4895C15.3734 13.4895 15.4228 13.4156 15.4228 13.3311C15.4228 13.2185 15.3664 13.113 15.3664 13.0003C15.3664 12.842 15.4617 12.7857 15.5958 12.7153C15.6452 12.6871 15.7157 12.6484 15.7581 12.6238C15.7193 12.4971 15.7898 12.3775 15.9451 12.3458C15.8251 12.2367 15.7299 12.1382 15.7299 11.8954C15.7299 11.7511 15.804 11.5962 15.9628 11.5962C16.1039 11.5962 16.1569 11.6877 16.1569 11.744C16.1569 11.8391 16.0192 11.7968 16.0192 11.8883C16.0192 11.9411 16.0792 12.0115 16.2027 12.0115C16.3933 12.0115 16.5133 12.1558 16.5027 12.2684C16.4392 12.2156 16.2768 12.1593 16.1851 12.1593C16.0863 12.1593 16.0157 12.191 16.0157 12.2508C16.0157 12.2719 16.0298 12.3388 16.1004 12.3388C16.3368 12.3388 16.5874 12.4936 16.5874 12.8068C16.5874 13.0109 16.4145 13.113 16.3509 13.1552C16.3121 13.1798 16.298 13.2044 16.298 13.2326C16.298 13.2678 16.3227 13.303 16.3933 13.303C16.4251 13.303 16.4603 13.2959 16.5062 13.2783C16.4498 13.3206 16.3757 13.398 16.1816 13.398C15.9875 13.398 15.8393 13.3382 15.7616 13.222C15.744 13.1974 15.7228 13.1904 15.7157 13.1904C15.6663 13.1904 15.6487 13.2326 15.6487 13.2748C15.6487 13.3135 15.6593 13.3522 15.6769 13.3874C15.7299 13.4895 15.8745 13.6303 16.1745 13.6303C16.3545 13.6303 16.4603 13.5599 16.5168 13.4437C16.7321 13.4649 16.7144 13.7569 16.8132 13.7886C16.7286 13.7886 16.4674 13.8731 16.4674 14.1546C16.4674 14.2566 16.5203 14.3481 16.5203 14.3481C16.5345 14.3798 16.5592 14.3939 16.5874 14.3939C16.6156 14.3939 16.6439 14.3728 16.6403 14.3411C16.6333 14.3094 16.6262 14.2566 16.6262 14.2109C16.6262 14.1616 16.6403 14.0877 16.725 14.0561C16.7144 14.0948 16.7038 14.1581 16.7038 14.2179C16.7038 14.503 16.8097 14.6226 16.8097 14.8654C16.8097 15.1082 16.6721 15.2349 16.4462 15.249C16.5309 15.1857 16.5415 15.0731 16.5415 15.0379C16.5415 14.9921 16.5239 14.9077 16.4356 14.9077C16.3862 14.9077 16.3404 14.9393 16.3439 15.0379C16.3474 15.1188 16.2698 15.2138 16.1039 15.2138C15.7475 15.2138 15.6275 15.0062 15.6275 14.8056C15.6275 14.6754 15.6946 14.6297 15.7475 14.5804C15.7722 14.5593 15.7934 14.5417 15.7934 14.503C15.7934 14.4643 15.7651 14.4256 15.6946 14.4256C15.624 14.4256 15.5605 14.4959 15.5393 14.5382C15.504 14.5135 15.4899 14.4748 15.4899 14.4396C15.4899 14.415 15.4899 14.3974 15.4899 14.3833C15.4899 14.3692 15.4899 14.3446 15.4511 14.3446C15.4193 14.3446 15.4017 14.3763 15.3875 14.408C15.3523 14.4889 15.3664 14.6085 15.437 14.7212C15.4193 14.7704 15.4123 14.8338 15.4123 14.9041C15.4123 15.2455 15.5252 15.4285 15.6805 15.8085C15.564 16.0056 15.4087 16.3188 15.3346 16.6074C15.2323 17.0156 15.1935 17.2584 15.1688 17.649C15.1617 17.7405 15.0876 17.9798 14.8617 18.0185C14.7947 18.1733 14.6959 18.4513 14.6747 18.6836C15.2852 18.5534 15.2887 18.2507 15.2746 18.0642C15.1617 17.9411 15.2005 17.8601 15.2923 17.8742C15.3875 17.8848 15.4334 17.7651 15.4334 17.7334C15.4334 17.6173 15.3487 17.5751 15.3664 17.3428C15.3981 16.9839 15.5075 16.3857 15.8357 15.9282C15.8675 15.886 15.8781 15.8437 15.8781 15.805C15.8781 15.6537 15.6416 15.4144 15.6099 15.1047C15.6487 15.2138 15.7969 15.3827 16.0581 15.3827C16.2133 15.3827 16.2733 15.3475 16.3121 15.3299C16.3509 15.3511 16.4356 15.3687 16.5098 15.3687C16.8238 15.3687 16.9967 15.1294 16.9967 14.9147C16.9967 14.6402 16.845 14.503 16.845 14.2285C16.845 14.1651 16.845 14.1053 16.8556 14.0561C17.0285 13.9998 17.0003 13.8379 16.9191 13.7956C16.9897 13.7745 16.9826 13.6901 16.9826 13.6549C16.9826 13.4402 16.8027 13.2432 16.6156 13.2291C16.7285 13.1446 16.8132 12.9933 16.8132 12.8103C16.8132 12.6379 16.7568 12.4971 16.6615 12.4021C16.7003 12.3564 16.7038 12.3001 16.7038 12.2578C16.7038 12.0537 16.5592 11.9446 16.4639 11.9165C16.3827 11.8954 16.3227 11.8426 16.3227 11.7722C16.3227 11.7335 16.358 11.6842 16.358 11.5505C16.358 11.3042 16.2063 11.1669 16.0545 11.1212C16.0616 11.0332 16.0475 10.8924 15.8357 10.8045C15.0911 10.5018 15.4617 10.1288 14.9006 9.98453C14.59 9.90359 14.6465 9.75931 14.3642 9.75931C14.3147 9.4426 14.0854 9.30536 13.8383 9.30536C13.7572 9.30536 13.6972 9.32295 13.6407 9.34055C13.556 9.17163 13.4713 9.0168 13.2561 9.0168C12.9667 9.0168 12.9314 8.62618 12.4762 8.62618C12.3597 8.62618 12.275 8.65785 12.2186 8.67545C12.0527 8.37985 11.7492 8.28836 11.4351 8.28836C11.3469 8.28836 11.241 8.30243 11.1422 8.34466C11.0787 8.29891 11.0117 8.2602 10.9481 8.23205V8.62266L10.9234 8.60859ZM15.0946 14.0807C15.0946 14.0807 15.0558 14.0701 15.0029 14.1159C14.9182 14.1827 14.6959 14.2918 14.4983 14.2918C14.4312 14.2918 14.3642 14.2918 14.3642 14.3376C14.3642 14.3833 14.4594 14.422 14.5618 14.422C14.7523 14.422 14.9288 14.3692 15.077 14.2848C15.1088 14.2672 15.1229 14.0983 15.0946 14.0807ZM12.8714 12.9335C12.8714 12.8842 12.8149 12.8666 12.762 12.8772C12.4938 12.9335 12.2821 12.8913 12.0739 12.7575C12.0668 12.7505 12.028 12.7259 12.0033 12.7259C11.9609 12.7259 11.9433 12.7575 11.9433 12.8103C11.9433 12.9476 12.1974 13.0954 12.4338 13.0954C12.702 13.0954 12.8714 13.0355 12.8714 12.9335ZM13.369 13.2783C13.369 13.2291 13.3408 13.1869 13.2808 13.1869C13.2102 13.1869 13.1396 13.2537 13.0232 13.2537C12.8644 13.2537 12.7902 13.1728 12.6703 13.1728C12.6032 13.1728 12.5503 13.215 12.5503 13.2678C12.5503 13.3839 12.6914 13.4684 12.9702 13.4684C13.1608 13.4684 13.369 13.3698 13.369 13.2783ZM13.8913 13.4367C13.8136 13.4367 13.7889 13.4789 13.6513 13.4789C13.5137 13.4789 13.4749 13.4437 13.4078 13.4437C13.3478 13.4437 13.3266 13.486 13.3266 13.5141C13.3266 13.5634 13.3513 13.5951 13.3972 13.6197C13.4784 13.669 13.6478 13.6866 13.7536 13.6866C13.8842 13.6866 14.0077 13.6408 14.0077 13.5458C14.0077 13.5212 13.9936 13.4332 13.8877 13.4332M15.1158 15.2173C14.9253 15.1857 14.8476 15.1399 14.8476 15.0695C14.8476 15.0203 14.8723 15.0027 14.9006 15.0027C15.0064 15.0027 15.0594 15.0519 15.2499 15.0625C15.2499 15.0625 15.2217 14.9886 15.2005 14.9006C15.1723 14.7951 14.9041 14.8654 14.9041 14.7775C14.9041 14.7282 14.9429 14.7247 15.0205 14.7212C15.0841 14.7212 15.1723 14.7212 15.1617 14.6402C15.1511 14.5769 15.1441 14.4713 15.137 14.4361C15.1299 14.3974 15.1229 14.3692 15.0876 14.3692C15.0629 14.3692 15.0417 14.3904 15.0417 14.3904C14.7841 14.5558 14.4312 14.4854 14.283 14.4326C14.2406 14.4185 14.1912 14.4396 14.2265 14.5522C14.2548 14.6367 14.3395 14.6789 14.4136 14.6789C14.5477 14.6789 14.6288 14.6648 14.71 14.6648C14.7629 14.6648 14.7876 14.6824 14.7876 14.7071C14.7876 14.7528 14.7453 14.788 14.6535 14.788C14.6324 14.788 14.5265 14.7739 14.4665 14.7739C14.4383 14.7739 14.4241 14.7915 14.4241 14.8091C14.4241 14.8302 14.4524 14.8654 14.4806 14.883C14.6571 15.0062 14.777 15.154 14.897 15.3053C14.9147 15.3264 14.9464 15.3968 15.0629 15.3968C15.2005 15.3968 15.2323 15.4848 15.2323 15.5728C15.2323 15.6361 15.1688 15.6607 15.1335 15.6607C15.0911 15.6607 15.077 15.6607 15.0311 15.6326C15.1052 15.9211 14.9958 16.4033 15.0876 16.4772C15.1441 16.5229 15.1582 16.361 15.1723 16.3047C15.2217 16.0795 15.3064 15.8824 15.4193 15.703C15.3417 15.4601 15.3381 15.2666 15.1193 15.2138M12.5467 13.6936C12.5467 13.5704 12.3915 13.5423 12.3209 13.5106C12.1409 13.4402 11.9892 13.3276 11.9892 13.1693C11.9892 13.1305 11.9715 13.0778 11.9009 13.0778C11.8621 13.0778 11.8092 13.127 11.8092 13.2009C11.8092 13.4086 12.0139 13.5458 12.1268 13.5986C12.1621 13.6162 12.1691 13.6408 12.1691 13.6514C12.1691 13.6795 12.148 13.6936 12.1268 13.6936C11.9856 13.6936 11.8974 13.6127 11.8304 13.5317C11.7951 13.493 11.7739 13.4437 11.7421 13.4437C11.7033 13.4437 11.6716 13.4789 11.6716 13.5247C11.6716 13.7042 11.9009 13.8344 12.2327 13.8344C12.455 13.8344 12.5432 13.7781 12.5432 13.6901M11.6998 13.0426C11.5939 12.937 11.5233 12.8033 11.5445 12.564C11.5481 12.5077 11.5975 12.4021 11.4951 12.4021C11.4069 12.4021 11.3751 12.5429 11.3751 12.5429C11.361 12.5992 11.354 12.6625 11.354 12.7259C11.354 12.8807 11.3963 13.0426 11.5057 13.1657C11.5269 13.1904 11.5692 13.2326 11.6398 13.2326C11.7069 13.2326 11.7421 13.1798 11.7421 13.1481C11.7421 13.0883 11.7069 13.0566 11.6963 13.0461M12.7691 13.8379C12.8079 13.8731 12.8996 13.9294 12.9526 13.9681C13.0443 14.0314 13.0902 14.0701 13.1467 14.0701C13.242 14.0701 13.2208 13.9962 13.1961 13.9646C13.1714 13.9329 13.1784 13.9012 13.2208 13.9012C13.2914 13.9012 13.2914 13.961 13.3266 14.0033C13.3266 14.0033 13.3655 14.1018 13.4749 14.1018C13.5243 14.1018 13.5596 14.0561 13.5596 14.0314C13.5596 14.0033 13.5384 13.9575 13.5243 13.9329C13.3937 13.7464 13.3796 13.7217 13.1361 13.7217C12.9632 13.7217 12.8467 13.5599 12.7091 13.5599C12.6526 13.5599 12.6244 13.6127 12.6244 13.6549C12.6244 13.7253 12.6491 13.7675 12.7691 13.8449M14.1242 14.7352C14.1242 14.6121 13.9089 14.5839 13.7925 14.5487C13.7501 14.5382 13.7325 14.5206 13.7325 14.4819C13.7325 14.4572 13.7572 14.4396 13.8031 14.4396C13.8313 14.4396 13.8489 14.4502 13.8701 14.4502C13.9124 14.4502 13.9407 14.4326 13.9407 14.3833C13.9407 14.3341 13.9089 14.3129 13.8383 14.3129C13.7678 14.3129 13.7395 14.3305 13.6337 14.3305C13.5737 14.3305 13.5666 14.2461 13.6407 14.2461C13.6901 14.2461 13.7219 14.2426 13.7219 14.2003C13.7219 14.1827 13.6831 14.137 13.6337 14.1088C13.6125 14.144 13.6019 14.2003 13.4996 14.2003C13.3725 14.2003 13.3372 14.1053 13.2031 14.1053C13.1678 14.1053 13.1184 14.1229 13.1184 14.1827C13.1184 14.225 13.1608 14.2778 13.189 14.3235C13.2208 14.3833 13.2737 14.4748 13.3372 14.4748C13.4219 14.4748 13.5313 14.4502 13.5313 14.5276C13.5313 14.5734 13.4643 14.6578 13.6054 14.6824C13.7783 14.7141 13.8595 14.7387 13.9371 14.7704C13.9513 14.7775 13.9971 14.7986 14.0395 14.7986C14.0748 14.7986 14.1101 14.781 14.1101 14.7352M11.1916 13.5528C11.2587 13.5986 11.361 13.6901 11.4986 13.6901C11.5551 13.6901 11.6045 13.6303 11.6045 13.5775C11.6045 13.4578 11.5234 13.4332 11.3928 13.391C11.3151 13.3663 11.2551 13.3382 11.1916 13.2995V13.5528ZM14.0077 14.9323C14.0077 14.9323 13.8136 14.781 13.4537 14.6965C13.5419 14.8901 13.7219 15.7452 13.7501 15.981C13.7925 16.3469 13.8313 17.012 13.6654 17.4308C13.6831 17.4554 13.7254 17.5047 13.7713 17.5223C14.0148 17.1493 13.9689 16.5546 13.9336 16.0056C13.9336 16.0056 13.9971 16.0478 14.0501 16.0478C14.1665 16.0478 14.1877 15.9563 14.1383 15.9141C14.0748 15.8543 14.0077 15.8296 13.976 15.798C13.923 15.7487 13.923 15.6467 14.036 15.6467C14.0854 15.6467 14.1524 15.6818 14.2089 15.7382C14.2653 15.7945 14.29 15.8684 14.29 15.981C14.2865 16.354 14.2371 16.727 14.2195 17.0719C14.2089 17.283 14.1489 17.6842 13.8666 17.6595C13.6513 17.8179 13.6301 18.1522 13.6372 18.3317C13.7572 18.3246 13.8983 18.2859 13.9795 18.2261C14.1171 18.1276 14.2301 17.9235 14.2442 17.7405C14.1348 17.6279 14.1983 17.5364 14.3042 17.5434C14.3465 17.5434 14.41 17.5364 14.4312 17.4942C14.4771 17.4027 14.3889 17.29 14.403 17.1493C14.3959 16.6461 14.4771 15.3405 14.4912 15.3511C14.5829 15.4179 14.7029 15.5376 14.7065 15.8437C14.7206 16.449 14.7347 17.4167 14.7347 17.4766C14.7347 17.6983 14.6359 17.751 14.6359 17.751C14.6606 17.7686 14.6747 17.8003 14.7559 17.8601C14.83 17.8285 14.897 17.7159 14.9076 17.5293L14.8794 16.0584C14.8547 15.5481 14.8159 15.4214 14.59 15.1962C14.59 15.1962 14.4136 15.0168 14.3359 15.0168C14.2618 15.0168 14.29 15.0977 14.2936 15.1575C14.3006 15.3933 14.2759 15.4813 14.2724 15.6044C14.2089 15.4777 13.9583 15.4074 13.9583 15.4074C13.8701 15.3722 13.8313 15.3405 13.8313 15.256C13.8313 15.256 13.8313 15.1751 13.9124 15.1751C13.9724 15.1751 13.9866 15.1997 14.0571 15.2068C14.1312 15.2138 14.1383 15.1681 14.1383 15.1399C14.1383 15.1153 14.1101 14.9956 14.0042 14.9217M14.71 17.9551C14.71 17.9551 14.65 17.9305 14.5971 17.8531C14.2971 18.1593 14.3218 18.4654 14.47 18.6238C14.523 18.3669 14.6112 18.1381 14.71 17.9516M13.6901 17.6138C13.6901 17.6138 13.616 17.5505 13.6019 17.5117C13.4713 17.6068 13.2666 17.8672 13.4854 18.2472C13.5066 17.9305 13.5737 17.8214 13.6866 17.6138M8.54844 10.1077C8.62255 10.1077 8.67196 9.9599 8.67196 9.77339C8.67196 9.48131 8.47787 9.08366 8.28024 9.08366C8.20614 9.08366 8.15673 9.13644 8.15673 9.19979C8.15673 9.28424 8.20614 9.32647 8.26966 9.38278C8.3967 9.49187 8.46022 9.67837 8.46022 9.95638C8.46022 10.0373 8.46728 10.1077 8.54844 10.1077ZM8.13203 9.78395C8.13203 9.54817 7.97676 9.15404 7.60269 9.15404C7.52152 9.15404 7.48623 9.21034 7.48623 9.25961C7.48623 9.35462 7.61327 9.43556 7.61327 9.53058C7.61327 9.59392 7.58504 9.6467 7.58504 9.7206C7.58504 9.83673 7.63092 9.87896 7.67326 9.87896C7.73679 9.87896 7.75796 9.8121 7.76149 9.74876C7.76149 9.70653 7.7509 9.65374 7.7509 9.65374C7.74384 9.61151 7.76502 9.57984 7.78972 9.57984C7.88147 9.57984 7.9097 9.71005 7.9097 9.83321C7.9097 9.87544 7.90618 10.0056 7.90618 10.0232C7.90618 10.0971 7.91323 10.1464 7.96617 10.1464C8.03322 10.1429 8.13203 9.99157 8.13203 9.79098M7.53917 10.1534C7.53917 9.96342 7.50035 9.67134 7.23921 9.67134C7.16863 9.67134 7.11216 9.71005 7.11216 9.76987C7.11216 9.93878 7.33802 9.97397 7.33802 10.2449C7.33802 10.3083 7.3239 10.354 7.3239 10.4033C7.3239 10.442 7.35566 10.4666 7.38389 10.4666C7.4827 10.4666 7.53917 10.3294 7.53917 10.157M7.13334 10.3153C7.13334 10.1886 7.06981 9.9423 6.85102 9.9423C6.76632 9.9423 6.71692 10.0021 6.71692 10.0514C6.71692 10.1675 6.81926 10.1922 6.8969 10.3153C6.96042 10.4244 6.95336 10.537 7.03805 10.537C7.11216 10.537 7.13334 10.4033 7.13334 10.3153ZM6.94278 10.9593C6.9463 10.8361 6.90043 10.6848 6.84749 10.6074C6.7875 10.5229 6.71692 10.4737 6.6534 10.4737C6.60752 10.4737 6.57929 10.4983 6.57929 10.5335C6.57929 10.6109 6.68516 10.6567 6.7381 10.808C6.80162 10.9769 6.76633 11.1141 6.84749 11.1141C6.91101 11.1141 6.94278 11.0367 6.94278 10.9558M8.78135 13.1869C8.78135 13.2361 8.85193 13.2432 8.92604 13.2432C9.20483 13.2432 9.52244 12.8842 9.52244 12.5006C9.52244 12.3564 9.48714 12.3212 9.42715 12.3212C9.36716 12.3212 9.35305 12.3669 9.34599 12.4021C9.27188 12.7188 9.18013 13.0144 8.88722 13.12C8.85899 13.127 8.78489 13.1411 8.78489 13.1869M6.04642 10.449C6.04642 10.3575 5.86644 10.1253 5.53472 10.1253C5.40062 10.1253 5.30534 10.1992 5.30534 10.2907C5.30534 10.3857 5.36886 10.449 5.45356 10.449C5.50296 10.449 5.54178 10.4385 5.61236 10.4385C5.84174 10.4385 5.87703 10.53 5.97937 10.53C6.0323 10.53 6.04642 10.4913 6.04642 10.449ZM8.86252 12.2578C8.72137 12.2578 8.72136 12.4267 8.67196 12.6203C8.59432 12.9335 8.35788 13.1869 8.19555 13.3206C8.16732 13.3452 8.13909 13.3593 8.13909 13.391C8.13909 13.4156 8.16026 13.4297 8.17791 13.4297C8.20261 13.4297 8.22731 13.4191 8.25201 13.405C8.49904 13.2783 8.67549 13.0707 8.80959 12.8631C8.87311 12.7681 8.97192 12.5464 8.97192 12.3986C8.97192 12.3177 8.93663 12.2613 8.85899 12.2613M6.57576 11.3886C6.57576 11.1036 6.42049 10.7095 6.08171 10.7095C6.00407 10.7095 5.9582 10.7411 5.9582 10.7869C5.9582 10.8397 5.99701 10.8643 6.02877 10.8748C6.24757 10.9276 6.37108 11.1458 6.42755 11.4168C6.43813 11.4766 6.43814 11.5962 6.51224 11.5962C6.56518 11.5962 6.57223 11.5012 6.57223 11.3886M8.28377 12.5006C8.28377 12.4479 8.27671 12.3317 8.18496 12.3317C8.12144 12.3317 8.0791 12.374 8.08262 12.5077C8.08615 12.7435 7.98381 13.0637 7.87794 13.1939C7.84266 13.2396 7.80737 13.2713 7.80737 13.31C7.80737 13.3347 7.82501 13.3522 7.85324 13.3522C7.87795 13.3522 7.89912 13.3382 7.92382 13.3171C8.11086 13.1481 8.28377 12.7962 8.28377 12.4971M5.8488 11.0965C5.77822 11.0965 5.72528 11.1282 5.72528 11.1986C5.72528 11.2268 5.74293 11.2584 5.76763 11.2831C5.90173 11.4062 5.96173 11.5294 5.98643 11.6948C5.99349 11.7546 6.00055 11.8567 6.08877 11.8567C6.16288 11.8567 6.18405 11.7581 6.18405 11.6526C6.18405 11.3429 6.01113 11.0965 5.84527 11.0965M5.67588 10.9699C5.67588 10.903 5.61589 10.8361 5.58413 10.8009C5.40415 10.5863 5.19595 10.5053 4.98068 10.5159C4.89246 10.5194 4.70895 10.5652 4.70895 10.7341C4.70895 10.8502 4.79717 10.8748 4.85364 10.8713C4.97009 10.8643 4.97009 10.7939 5.11125 10.7939C5.25241 10.7939 5.34769 10.8819 5.43591 10.9734C5.45709 10.9945 5.51002 11.0719 5.57707 11.0719C5.65118 11.0719 5.67235 11.0191 5.67235 10.9734M8.77783 13.5458C8.80959 13.5458 8.86252 13.5317 8.86252 13.4754C8.86252 13.4191 8.81665 13.398 8.75665 13.398C8.54139 13.398 8.32965 13.4367 8.32965 13.6127C8.32965 13.7042 8.43905 13.7429 8.43905 13.8344C8.43905 13.8731 8.40023 13.8907 8.36847 13.8977C8.35082 13.8977 8.31906 13.9083 8.31906 13.947C8.31906 13.9786 8.35435 13.9892 8.372 13.9892C8.48139 13.9892 8.57315 13.9364 8.57315 13.8484C8.57315 13.7675 8.52022 13.7147 8.52022 13.6584C8.52022 13.5986 8.57668 13.5528 8.77783 13.5528M7.10158 13.5247C7.12275 13.4613 7.14392 13.3558 7.15098 13.2678C7.15098 13.1833 7.14393 13.1165 7.09805 13.1165C7.04159 13.1165 7.04864 13.2361 7.01688 13.3311C6.97453 13.4613 6.91101 13.5141 6.88984 13.5775C6.87572 13.6232 6.88631 13.669 6.93572 13.6795C7.01335 13.6971 7.07687 13.6021 7.1051 13.5212M6.71339 12.6449C6.72045 12.2789 6.55106 12.0009 6.43461 11.9235C6.42755 11.92 6.41696 11.913 6.40637 11.913C6.39226 11.913 6.37108 11.92 6.37108 11.9446C6.37108 11.9552 6.3852 11.9728 6.3852 11.9798C6.48401 12.1382 6.51224 12.3423 6.51224 12.5605C6.51224 12.6344 6.50871 12.7083 6.50166 12.7822C6.4946 12.849 6.51224 12.93 6.59693 12.9264C6.68869 12.9229 6.70633 12.7786 6.71339 12.6449ZM2.90918 11.9833C2.87037 12.2895 2.31279 12.2086 2.31279 12.6344C2.04459 12.7575 2.04812 12.9194 2.0693 13.1376C2.06224 13.2361 2.01989 13.2502 1.90344 13.3065C1.80815 13.3522 1.70934 13.4226 1.66699 13.5282C1.81874 13.7006 1.90696 13.7675 2.18928 13.7851C2.42572 13.8062 2.37984 14.3939 2.60569 14.503C2.69745 14.8584 2.87389 15.5411 3.15621 15.9071C3.26561 15.9141 3.26208 15.9669 3.37148 15.9669C3.40676 15.9669 3.45617 15.9317 3.49146 15.8965C3.55498 15.9141 3.71026 15.9071 3.85847 15.8472C4.2149 15.6994 4.24313 15.6572 4.26077 15.3862C4.26077 15.2209 4.22548 15.0343 4.37017 14.8549C4.60308 14.5698 4.61014 14.5276 4.78305 14.1968C5.00891 14.1968 5.10419 13.9822 5.18535 13.6866C5.32651 13.6619 5.42533 13.5845 5.42533 13.4543C5.42533 13.3593 5.36886 13.2889 5.29476 13.2889C5.20653 13.2889 5.17124 13.3487 5.15007 13.4261C5.12537 13.5317 5.03361 13.676 4.93127 13.683C4.84658 14.0068 4.69483 14.0842 4.6419 14.0877C4.56426 14.0912 4.53603 14.042 4.53603 13.9927C4.53603 13.866 4.62425 13.8097 4.70189 13.7675C4.87834 13.669 4.81482 13.4965 4.86775 13.493C4.94892 13.493 5.00891 13.4015 5.01244 13.3241C5.01244 13.2783 4.99832 13.1622 4.87481 13.1622C4.71954 13.1622 4.6666 13.4261 4.6666 13.4297C4.62072 13.5599 4.56426 13.6091 4.51838 13.6091C4.45486 13.6091 4.43369 13.5775 4.43369 13.5247C4.43369 13.4191 4.58897 13.3206 4.58897 13.1833C4.58897 13.1481 4.57485 13.1059 4.54662 13.0637C4.70542 12.937 4.79717 12.761 4.79717 12.4443C4.79717 12.1523 4.74071 11.9974 4.71248 11.9235C4.69836 11.8883 4.6666 11.8602 4.63837 11.8602C4.57838 11.8602 4.56779 11.913 4.55015 11.9517C4.44781 12.191 3.90435 12.1558 3.65027 12.6168L3.74908 12.7892C3.87612 12.5112 4.07021 12.5112 4.33488 12.3388C4.48663 12.2402 4.55015 12.2789 4.55015 12.374C4.55015 12.6977 4.46898 12.9264 4.10903 13.1094C4.05257 13.1376 3.88671 13.2044 3.98199 13.0074C3.9961 12.9757 4.05609 12.8349 3.99963 12.8349C3.96434 12.8349 3.92199 12.9159 3.90788 12.9194C3.75613 13.1305 3.68202 13.208 3.52675 13.208C3.68908 13.0883 3.67497 12.9476 3.74908 12.7892L3.65027 12.6168C3.61145 12.6801 3.52675 12.7329 3.39971 12.7329C3.10328 12.7329 3.17739 12.3669 3.17739 12.3669C3.17739 12.3247 3.18445 12.2402 3.08916 12.2402C2.99388 12.2402 2.8739 12.3634 2.8739 12.5358C2.8739 12.6872 2.97623 12.9757 3.28325 12.9757C3.42794 12.9757 3.51969 12.8983 3.51969 12.8983C3.51263 13.0074 3.47029 13.1165 3.36442 13.1341C3.27973 13.1481 3.24091 13.1939 3.24091 13.2432C3.24091 13.3276 3.28325 13.4191 3.5091 13.4191C3.65026 13.4191 3.77025 13.3558 3.84083 13.303C3.89023 13.3311 3.93964 13.3452 3.98904 13.3452C4.12667 13.3452 4.27489 13.2467 4.34194 13.208C4.36664 13.2748 4.32782 13.3276 4.28194 13.398C4.20784 13.4789 4.15138 13.5599 4.14785 13.6443C4.14785 13.6654 4.14785 13.7288 4.2396 13.7288C4.27842 13.7288 4.3243 13.7042 4.36311 13.6619C4.38429 13.7217 4.39487 13.7781 4.39487 13.8273C4.39487 14.0068 4.36664 14.0103 4.36664 14.1651C4.36664 14.2214 4.41605 14.2355 4.43369 14.2355C4.49721 14.2355 4.5078 14.2003 4.52897 14.1792C4.52897 14.51 4.32429 14.6895 4.08432 14.8865L4.16902 14.9147C4.13726 14.9992 4.14079 15.1364 4.01727 15.2349C3.98198 15.2209 3.94669 15.2138 3.9114 15.2068C3.9114 15.2772 3.93611 15.4144 3.93611 15.5129C3.93611 15.6079 3.91494 15.71 3.85494 15.7557C3.80907 15.7733 3.8126 15.7874 3.73143 15.7874C3.69614 15.7874 3.66085 15.7874 3.66085 15.6818C3.66085 15.5763 3.71731 15.3792 3.65379 15.3792C3.55498 15.3792 3.50205 15.4496 3.42441 15.6079C3.38559 15.6924 3.38912 15.7769 3.24797 15.8085C3.0574 15.5587 2.8739 14.7634 2.86331 14.3868C2.67275 14.2813 2.6304 14.0877 2.57746 13.7253C2.84919 13.7077 3.09975 13.5317 3.09975 13.3417C3.09975 13.1763 2.91272 13.0918 2.83508 13.025C2.71509 12.9229 2.73627 12.7575 2.59158 12.7575C2.54923 12.7575 2.47865 12.7962 2.47865 12.8948C2.47865 12.9792 2.52453 13.1094 2.61275 13.1869C2.69392 13.2608 2.79626 13.3135 2.79626 13.3874C2.79626 13.4825 2.70804 13.5071 2.60217 13.5071C2.44689 13.5071 2.29868 13.3347 2.29868 13.0391C2.29868 12.8103 2.44336 12.5569 2.62334 12.5569C2.72215 12.5569 2.72921 12.6449 2.79273 12.6449C2.82449 12.6449 2.81037 12.6062 2.81037 12.6062C2.7892 12.564 2.78214 12.5182 2.78214 12.4725C2.78214 12.2473 3.02564 11.9798 3.38559 11.9798C3.39265 11.8567 3.4844 11.7863 3.60439 11.7581C3.67497 11.744 3.73143 11.7581 3.74555 11.6455C3.75614 11.5575 3.80554 11.5329 3.85141 11.5329C3.95728 11.5329 3.9961 11.5892 4.05257 11.5892C4.14079 11.5892 4.21137 11.5259 4.21137 11.3957C4.21137 11.3253 4.17255 11.2619 4.00669 11.2619C3.90082 11.2619 3.89023 11.1493 3.89023 11.1212C3.89023 11.0086 3.96081 10.91 4.00669 10.8748C4.00669 10.8748 3.95376 11.0754 4.11962 11.0754C4.2643 11.0754 4.30312 10.9523 4.40546 10.9523C4.5078 10.9523 4.46898 11.1177 4.59249 11.1177C4.65954 11.1177 4.68424 11.0578 4.68424 11.0156C4.68424 10.903 4.59602 10.7235 4.30665 10.7235C4.21843 10.7235 4.11961 10.7517 4.06668 10.7939C4.12667 10.7059 4.19372 10.6004 4.40899 10.5687C4.60308 10.5405 4.71248 10.3892 4.9101 10.3892C5.01597 10.3892 5.10772 10.4244 5.18183 10.4737C5.23829 10.3822 5.13948 10.1499 4.87481 10.1816C4.94186 9.99861 5.07596 9.89656 5.29122 9.89656C5.41121 9.89656 5.53825 9.95286 5.61589 10.0127C5.66529 9.98453 5.73234 9.92119 5.89114 9.92119C6.25816 9.92119 6.21581 10.2942 6.35344 10.2942C6.43108 10.2942 6.46989 10.2344 6.46989 10.1816C6.46989 10.0725 6.36402 9.73468 5.98995 9.73468C5.92996 9.73468 5.85939 9.74524 5.77822 9.77339C5.85586 9.68541 6.02525 9.62207 6.21934 9.62207C6.41343 9.62207 6.57577 9.73468 6.65693 9.7945C6.68516 9.81562 6.70633 9.82266 6.72398 9.82266C6.76632 9.82266 6.78397 9.77691 6.78397 9.71708C6.78397 9.53058 6.56518 9.41093 6.36755 9.41093C6.3005 9.41093 6.18405 9.42852 6.12406 9.45316C6.19111 9.33351 6.31462 9.26665 6.48048 9.26665C6.55106 9.26665 6.67458 9.30184 6.71692 9.32999C6.74868 9.31591 6.77338 9.30184 6.84043 9.30184C6.971 9.30184 7.04511 9.38981 7.10158 9.46019C7.11569 9.47427 7.16509 9.54113 7.22509 9.54113C7.28508 9.54113 7.3239 9.50242 7.3239 9.45316C7.3239 9.28072 7.06629 9.12589 6.90396 9.08014C6.96748 8.9992 7.08393 8.95345 7.15098 8.95345C7.28508 8.95345 7.46153 9.00624 7.60621 9.00624C7.8356 9.00624 7.95558 8.81621 8.21319 8.81621C8.51668 8.81621 8.62961 8.96753 8.7143 9.16811C8.76724 9.2948 8.78488 9.44964 8.90134 9.44964C8.9578 9.44964 9.00368 9.41797 9.00368 9.32999C9.00368 9.05903 8.80959 8.71768 8.48492 8.63322C8.53786 8.54877 8.66137 8.46079 8.84135 8.46079C8.99309 8.46079 9.09896 8.51709 9.13072 8.54173C8.99662 8.5558 8.9084 8.6297 8.9084 8.69305C8.9084 8.74583 8.95427 8.79158 9.02485 8.76695C9.06367 8.75287 9.10955 8.74583 9.14131 8.74583C9.39539 8.74583 9.28952 9.03791 9.45891 9.03791C9.51538 9.03791 9.53655 9.00272 9.53655 8.96753C9.53655 8.85844 9.52244 8.66489 9.29658 8.5558C9.33893 8.51709 9.45538 8.43264 9.62477 8.43264C9.70947 8.43264 9.79416 8.45727 9.82945 8.46783V8.21094C9.40951 8.21094 9.3107 8.30947 9.22953 8.36929C9.18013 8.33762 9.08837 8.26372 8.85193 8.26372C8.54844 8.26372 8.36847 8.43264 8.30495 8.58747C8.29083 8.58747 8.24848 8.58396 8.23084 8.58396C7.96264 8.58396 7.8356 8.7775 7.59916 8.7775C7.36272 8.7775 7.28508 8.7212 7.15451 8.7212C6.85102 8.7212 6.69575 8.95697 6.64281 9.04495C6.61811 9.04495 6.59341 9.04495 6.57223 9.04495C6.13817 9.04495 5.75352 9.37222 5.5806 9.77339C5.51355 9.7382 5.3971 9.69949 5.30534 9.69949C5.02303 9.69949 4.75129 9.84025 4.65601 10.2449C4.48662 10.3048 4.06668 10.4033 3.84083 10.7235C3.7526 10.8502 3.71378 10.9804 3.69614 11.0965C3.67144 11.2373 3.66085 11.4133 3.54087 11.5399C3.39265 11.6807 2.96918 11.5822 2.91624 11.9798M5.54178 11.7687C5.60883 11.7687 5.64765 11.7018 5.64765 11.6033C5.64765 11.3112 5.34769 10.998 5.06184 10.998C4.91363 10.998 4.86422 11.0649 4.86422 11.1458C4.86422 11.2655 4.97009 11.2936 5.05831 11.2936C5.26652 11.2936 5.37592 11.4836 5.42885 11.6455C5.45356 11.7159 5.48179 11.7722 5.54178 11.7722M7.9944 14.3657C8.13909 14.2848 8.28377 14.1511 8.36141 14.2883C8.5308 14.2883 8.81665 14.1088 8.83429 13.8168C8.86605 13.8203 8.89781 13.8238 8.92957 13.8238C9.16248 13.8203 9.38128 13.6936 9.38128 13.4649C9.38128 13.2783 9.29306 13.2009 9.22601 13.2009C9.18719 13.2009 9.14837 13.2256 9.14837 13.2783C9.14837 13.2995 9.16954 13.3311 9.18013 13.3522C9.20483 13.391 9.21189 13.4191 9.21189 13.4543C9.21189 13.6091 9.07779 13.6901 8.89075 13.6901C8.83429 13.6901 8.7743 13.6795 8.7143 13.6549C8.72136 13.7992 8.68607 13.947 8.54492 14.0455C8.42846 14.1264 8.26613 14.1687 8.14968 14.1194C8.12497 14.1088 8.09674 14.137 8.07556 14.1511C8.07556 14.1511 7.95205 14.2637 7.93088 14.225C7.9097 14.1827 8.01205 14.0948 8.06145 14.0279C8.11791 13.954 8.14262 13.8625 8.15673 13.7886C8.16732 13.7288 8.14967 13.6971 8.10732 13.6901C8.05439 13.6795 8.02616 13.7217 7.98734 13.7992C7.78266 14.2144 7.57445 14.3376 7.32037 14.4502C7.27449 14.4713 7.22862 14.4854 7.22156 14.5241C7.2145 14.5698 7.25685 14.5804 7.28155 14.5769C7.38389 14.5628 7.64503 14.4713 7.7509 14.4009C7.82501 14.4361 7.91677 14.4115 7.99087 14.3728M8.1532 14.883C8.11791 14.978 8.06145 15.0238 7.9944 15.0625C7.9944 15.0625 7.92382 15.0977 7.88853 15.1153C7.82501 15.1434 7.87442 15.2349 7.92735 15.2349C8.17791 15.2349 8.32965 15.059 8.39317 14.9429C8.40729 14.9147 8.4461 14.8056 8.44963 14.7493C8.44963 14.6965 8.43199 14.6754 8.40729 14.6965C8.37906 14.7141 8.31201 14.8584 8.1532 14.883ZM8.06145 14.5558C8.02263 14.6367 7.86383 14.693 7.84619 14.7036C7.81795 14.7212 7.80384 14.7387 7.80384 14.7563C7.80384 14.7845 7.82854 14.8091 7.85324 14.8126C8.00146 14.8338 8.25554 14.6543 8.35435 14.5558C8.37906 14.5276 8.43905 14.4572 8.45317 14.4009C8.46728 14.3481 8.44963 14.327 8.41787 14.3446C8.38964 14.3587 8.26966 14.5522 8.06145 14.5558ZM6.32521 13.3347C6.32521 13.2432 6.28992 13.1869 6.24051 13.1869C6.21228 13.1869 6.18052 13.2326 6.1664 13.3135C6.13817 13.4437 5.99701 13.5458 5.90879 13.588C5.84174 13.6197 5.77116 13.6338 5.77116 13.7077C5.77116 13.7675 5.84174 13.8168 5.90879 13.8168C6.08524 13.8168 6.32521 13.6619 6.32521 13.3382M6.15935 12.2508C6.117 12.2508 6.10641 12.2895 6.10641 12.381C6.10288 12.5534 6.02172 12.7646 5.80645 12.7716C5.88056 12.6379 5.91938 12.4655 5.92291 12.3317C5.92997 12.096 5.88762 11.9094 5.74646 11.9094C5.53825 11.9094 5.45709 12.1628 5.45709 12.4232C5.45709 12.4725 5.47473 12.4936 5.49238 12.4936C5.51002 12.4936 5.52061 12.476 5.52766 12.4479C5.57001 12.2578 5.62648 12.1593 5.70058 12.1593C5.7641 12.1593 5.77469 12.2578 5.77469 12.3106C5.76411 12.747 5.54531 12.9018 5.50296 12.93C5.46767 12.9546 5.37945 13.0144 5.37945 13.0707C5.37945 13.0954 5.39356 13.1341 5.4465 13.1341C5.56295 13.1341 5.7641 12.9616 5.7641 12.9616C5.83468 12.8913 5.88056 12.8631 5.90526 12.8666C5.92997 12.8666 5.94055 12.8913 5.94055 12.9229C5.94055 13.0355 5.89468 13.1763 5.66882 13.3734C5.62648 13.4121 5.59825 13.4367 5.59825 13.4895C5.59825 13.5423 5.63706 13.5704 5.69352 13.5704C5.8982 13.5704 6.12053 13.2467 6.12053 12.9792C6.12053 12.937 6.11347 12.8948 6.10288 12.8561C6.24051 12.7435 6.2758 12.6097 6.2758 12.5042C6.2758 12.3458 6.21934 12.2508 6.16288 12.2508M5.01244 12.3317C5.07949 12.191 5.12184 12.0291 5.12184 11.8813C5.12184 11.7616 5.09713 11.649 5.0442 11.5575C4.91716 11.3358 4.72306 11.2514 4.65249 11.2514C4.56779 11.2514 4.51838 11.3042 4.51838 11.3534C4.51838 11.5118 4.68072 11.547 4.77247 11.6455C4.90657 11.7828 4.95245 11.9798 4.95245 12.1558C4.95245 12.2191 4.9348 12.293 4.9348 12.3352C4.9348 12.3564 4.94539 12.3669 4.97009 12.3669C4.99479 12.3669 5.00538 12.3388 5.00891 12.3317M6.7028 13.8836C6.7028 13.8836 6.70986 13.8555 6.70986 13.8414C6.70986 13.8132 6.68869 13.7816 6.62517 13.7816C6.59341 13.7816 6.55106 13.7851 6.55106 13.7851C6.49813 13.7921 6.43813 13.8097 6.43813 13.8871C6.43813 13.9364 6.48754 13.961 6.5193 13.9786C6.5193 13.9786 6.544 13.9892 6.57929 13.9892C6.66046 13.9892 6.68869 13.9188 6.7028 13.8871M6.95336 12.6801C6.93572 12.6344 6.91454 12.6133 6.8969 12.6168C6.87219 12.6168 6.85808 12.659 6.85102 12.7294C6.82632 12.9968 6.7628 13.1552 6.66752 13.2608C6.59341 13.3452 6.75221 13.493 6.83691 13.3558C6.96042 13.1411 7.02747 12.9827 6.95336 12.6836M5.12184 12.6344C5.08302 12.7012 4.95245 12.7857 4.95245 12.8842C4.95245 12.9511 4.98774 12.9933 5.0442 12.9933C5.203 12.9933 5.27005 12.7927 5.27005 12.5006C5.27005 12.4479 5.25241 12.2578 5.19947 12.2578C5.14654 12.2578 5.17477 12.3564 5.17477 12.3951C5.17477 12.4584 5.16418 12.5605 5.12184 12.6308M6.50166 13.6725C6.5193 13.6443 6.52989 13.6162 6.52989 13.5986C6.52989 13.5915 6.52635 13.5845 6.5193 13.5845C6.50518 13.5845 6.4946 13.5951 6.46636 13.6197C6.12053 13.954 5.88762 13.8484 5.66177 13.8942C5.56648 13.9118 5.55237 13.9716 5.55943 14.0209C5.56296 14.0912 5.67941 14.1546 5.89114 14.1159C6.13464 14.0666 6.37109 13.9012 6.50166 13.6725ZM4.27136 11.276C4.32429 11.4309 4.33135 11.7229 4.10197 11.7335C4.03139 11.737 4.00316 11.7124 3.93964 11.7159C3.89023 11.7159 3.77731 11.7335 3.77731 11.8531C3.77731 11.9869 3.90082 12.0537 4.05257 12.0537C4.289 12.0537 4.46192 11.8848 4.46898 11.6314C4.46898 11.5223 4.42311 11.3218 4.26783 11.2725M8.34377 15.1751C8.27319 15.1751 8.2626 15.3968 8.09674 15.3898C8.06498 15.3898 8.01558 15.3722 8.00146 15.3722C7.95911 15.3722 7.93794 15.4003 7.93441 15.4355C7.93441 15.4883 7.98734 15.5516 8.11438 15.5516C8.39317 15.5516 8.49551 15.1716 8.34377 15.1716M8.03675 16.0584C7.94852 16.0584 7.93088 16.2625 7.7262 16.2625C7.6768 16.2625 7.62033 16.2484 7.5921 16.2484C7.55328 16.2484 7.52505 16.273 7.52505 16.3153C7.52505 16.3681 7.5921 16.4384 7.7509 16.4384C8.04028 16.4384 8.17438 16.0654 8.03675 16.0584ZM8.32259 15.7628C8.36494 15.6607 8.26966 15.5833 8.19908 15.6678C8.10027 15.7874 7.93088 15.9106 7.77208 15.9106C7.74384 15.9106 7.7262 15.8789 7.7262 15.8578C7.7262 15.8367 7.74384 15.8121 7.76149 15.8085C7.92735 15.7804 7.9944 15.6924 7.9944 15.6255C7.9944 15.5728 7.95558 15.5763 7.95558 15.5763C7.90618 15.5763 7.88147 15.6818 7.68385 15.6818C7.52858 15.6818 7.48976 15.6326 7.44035 15.6326C7.39095 15.6326 7.36978 15.6607 7.36978 15.6889C7.36978 15.7346 7.39095 15.7557 7.40507 15.7628C7.47565 15.798 7.5427 15.798 7.60269 15.8121C7.62386 15.8191 7.63798 15.8367 7.63798 15.8613C7.63798 15.9423 7.57446 15.9704 7.50035 15.9704C7.42977 15.9704 7.32037 15.9141 7.28508 15.7839C7.22156 15.8226 7.1651 15.8508 7.02394 15.8508C6.91807 15.8508 6.82985 15.7839 6.7628 15.7382C6.72045 15.7135 6.70634 15.7311 6.70634 15.7663C6.70634 15.9176 6.83338 16.1288 7.02394 16.1288C7.2145 16.1288 7.31684 16.0373 7.34508 16.0091C7.39095 16.1112 7.48623 16.1534 7.58857 16.1534C7.64504 16.1534 7.7509 16.1252 7.81089 16.083C7.885 16.0302 7.94853 15.995 8.01205 15.981C8.07557 15.9669 8.26613 15.8965 8.32259 15.7593M6.42402 15.3088C6.51577 15.5587 6.7028 15.6502 6.91807 15.6502C6.98865 15.6502 7.13687 15.615 7.21097 15.5833C7.50741 15.6431 7.65562 15.5024 7.7262 15.344C7.73679 15.3194 7.75443 15.2385 7.71914 15.2385C7.70503 15.2385 7.68385 15.249 7.65209 15.2948C7.58504 15.3827 7.42271 15.4672 7.25685 15.3933C7.19686 15.4285 7.12275 15.4566 7.02394 15.4566C6.86161 15.4566 6.76985 15.4144 6.71339 15.3687C6.6781 15.3405 6.71692 15.3159 6.75221 15.3299C6.82279 15.3616 7.12628 15.4074 7.19333 15.2349C7.2392 15.2877 7.29567 15.3053 7.37683 15.3053C7.50388 15.3053 7.59563 15.1258 7.62033 15.0062C7.62739 14.9675 7.63092 14.9077 7.59563 14.9077C7.57445 14.9077 7.5674 14.9217 7.55681 14.9393C7.50387 15.0484 7.42624 15.1681 7.28861 15.1681C7.22156 15.1681 7.15804 15.1364 7.09452 15.0625C6.82279 15.256 6.48401 15.1258 6.48401 15.1258C6.42402 15.0977 6.37461 15.1821 6.42402 15.3124M6.97101 14.4431C6.80162 14.4959 6.6781 14.5311 6.44519 14.5311C6.24051 14.5311 6.06759 14.4256 6.06759 14.3481C6.06759 14.3305 6.07818 14.3129 6.09582 14.3129C6.10641 14.3129 6.12406 14.3235 6.14876 14.3341C6.25463 14.3904 6.34991 14.4115 6.46636 14.4115C6.6287 14.4115 6.70986 14.3622 6.79103 14.3235C6.90395 14.2742 6.92513 14.2039 6.92513 14.1616C6.92513 14.144 6.91101 14.1229 6.8969 14.1229C6.86514 14.1229 6.82279 14.1511 6.74868 14.1722C6.66399 14.1968 6.61458 14.2214 6.41343 14.2214C6.117 14.2214 6.0676 14.1405 5.96173 14.0666C5.96173 14.0666 5.9335 14.049 5.90526 14.049C5.86292 14.049 5.8241 14.0807 5.8241 14.1863C5.8241 14.2531 5.90526 14.3235 5.91938 14.3305C5.91938 14.4924 5.97937 14.5734 6.06054 14.6332C6.30051 14.8162 6.85808 14.7387 7.05217 14.5734C7.11569 14.5206 7.11569 14.3904 6.97101 14.4396M7.42624 14.8514C7.47212 14.7986 7.44036 14.7212 7.38742 14.7528C7.29567 14.8056 7.17569 14.9464 6.98159 14.8162C6.77339 14.8725 6.4346 14.9217 6.34285 14.7493C6.3252 14.7141 6.26521 14.7176 6.26169 14.7528C6.2511 14.8443 6.28992 14.9323 6.36755 14.9992C6.50166 15.1082 6.79103 15.1716 7.00629 14.9253C7.17568 15.0519 7.33802 14.9534 7.42271 14.8478M7.945 18.1241C7.88853 18.3106 7.83912 18.4971 7.82148 18.7504C8.13556 18.6801 8.31906 18.49 8.33671 18.11C8.22378 18.0713 8.2379 17.9094 8.38611 17.8883C8.49551 17.8707 8.50257 17.7968 8.47786 17.7264C8.41787 17.6208 8.36847 17.5364 8.35788 17.3956C8.31906 16.7129 8.29789 16.2167 8.32259 15.8789C8.16026 15.9563 8.1038 16.0513 8.11792 16.3047C8.11792 16.3047 8.14262 16.6918 8.19908 17.5188C8.22025 17.7546 8.17085 18.0572 7.94147 18.1205M3.61851 11.8954C3.5197 11.8954 3.38912 11.9939 3.38912 12.1874C3.38912 12.3317 3.48087 12.4303 3.64321 12.4303C3.79495 12.4303 3.8867 12.3106 3.89023 12.2191C3.89023 12.1699 3.86553 12.1347 3.82671 12.1347C3.7526 12.1347 3.73849 12.2156 3.66438 12.2156C3.55498 12.2156 3.55851 12.0748 3.61145 11.9798C3.64674 11.92 3.63968 11.8954 3.61851 11.8954ZM5.18889 14.042C5.09361 14.0807 5.01244 14.1088 5.01244 14.1968C5.01244 14.225 5.04067 14.2848 5.12536 14.2848C5.28064 14.2848 5.49591 14.0138 5.5806 13.8801C5.57354 13.8062 5.60177 13.7499 5.61589 13.6866C5.63353 13.6197 5.61589 13.581 5.59119 13.581C5.57001 13.581 5.5559 13.6021 5.54178 13.6443C5.49943 13.7534 5.38651 13.961 5.18889 14.042ZM8.00851 17.6947C8.03322 17.3639 8.01558 16.9769 7.91324 16.3927C7.85324 16.3927 7.76855 16.4138 7.71562 16.3751C7.8109 16.7305 7.92382 17.5399 7.81089 17.8918C7.81089 17.8918 7.86383 17.9692 7.93441 17.9868C7.99793 17.8566 8.00146 17.7651 8.00851 17.6983M7.10864 16.5792C7.10158 16.5475 7.12628 16.537 7.20039 16.5018C7.2745 16.4666 7.3239 16.442 7.3239 16.354C7.3239 16.3118 7.27449 16.2836 7.2145 16.2836C7.02394 16.2836 6.90396 16.3118 6.79809 16.1604C6.91101 16.3118 6.98159 16.7481 6.99923 16.8467C7.0557 17.1915 7.031 17.3252 6.92866 17.7722C6.94277 17.832 7.02747 17.8883 7.04511 17.839C7.19686 17.4203 7.18627 17.0261 7.14745 16.7974C7.12981 16.6742 7.12275 16.639 7.11216 16.5792M7.42624 17.8214C7.46153 17.8073 7.49682 17.7968 7.50388 17.7334C7.51093 17.6595 7.47918 17.6138 7.4827 17.5399C7.48976 17.4343 7.53917 16.7833 7.47564 16.4701C7.47564 16.4701 7.42977 16.5757 7.33802 16.6038C7.36625 16.9593 7.34861 17.4097 7.3239 17.642C7.30626 17.8355 7.24273 17.9446 7.03805 18.0537C6.99218 18.2085 6.97806 18.4373 6.99571 18.6343C7.25332 18.5358 7.42977 18.3422 7.42977 18.0255C7.30978 17.9516 7.36978 17.8496 7.42624 17.8214ZM3.9467 13.5458C3.85494 13.5528 3.54087 13.6338 3.44206 13.6795C3.32913 13.7323 3.31854 13.8344 3.31854 13.9399C3.31854 14.1863 3.42088 14.3129 3.44559 14.5135C3.46323 14.6437 3.45617 14.7634 3.58674 14.7282C3.57615 14.5346 3.56557 14.3728 3.56204 14.2109C3.55498 14.0385 3.74202 13.9083 3.84789 13.8801C3.81965 13.7569 3.89023 13.6303 3.94317 13.5493M7.84619 18.1029C7.78266 18.0678 7.74032 17.9974 7.72973 17.9727C7.65209 18.0572 7.53917 18.2472 7.53917 18.4654C7.53917 18.5991 7.59563 18.6801 7.68738 18.7434C7.69797 18.578 7.76502 18.2859 7.84971 18.1065M6.95336 18.0431C6.95336 18.0431 6.85808 17.9903 6.83338 17.9235C6.70634 18.0607 6.58635 18.395 6.83691 18.6132C6.84749 18.3493 6.91454 18.1452 6.95336 18.0431Z" fill="#1D2A47"/>
</svg>
