<svg width="21" height="20" viewBox="0 0 21 20" fill="none" xmlns="http://www.w3.org/2000/svg">
<path d="M17.686 7.86167L10.5337 0.71652C10.3893 0.572173 10.2053 0.503609 10.0176 0.5C9.82997 0.5 9.64232 0.572173 9.50159 0.71652L2.342 7.86167C2.25539 7.95549 2.80391 8.64836 3.56895 9.417C4.33398 10.1856 5.03406 10.7342 5.12789 10.6476L6.1347 9.64074V18.2005C6.1347 18.3665 8.84842 18.5 10.014 18.5C11.1796 18.5 13.8933 18.3629 13.8933 18.2005V9.64074L14.9001 10.6476C14.994 10.7342 15.694 10.1856 16.4555 9.417C17.2205 8.64836 17.769 7.95549 17.6824 7.86167M12.5689 3.6251L10.5373 5.65678C10.3929 5.80112 10.2017 5.8733 10.014 5.8733C9.82636 5.8733 9.63511 5.80112 9.49076 5.65678L7.45908 3.6251C7.37608 3.5421 7.43382 3.40136 7.5493 3.40136H12.4715C12.587 3.40136 12.6447 3.5421 12.5617 3.6251" fill="black"/>
</svg>
