<svg width="21" height="20" viewBox="0 0 21 20" fill="none" xmlns="http://www.w3.org/2000/svg">
<g clip-path="url(#clip0_12138_10816)">
<rect width="24" height="24" transform="translate(-1.33301 -3)" fill="#FFE900"/>
<path d="M6.84215 3.19285C4.71138 3.19285 2.98373 4.93009 2.98373 7.06086V10.9481C2.98373 13.0788 4.72098 14.8161 6.84215 14.8161H14.2423C16.373 14.8161 18.1103 13.0788 18.1103 10.9481V7.06086C18.1103 4.93009 16.373 3.19285 14.2423 3.19285H6.84215Z" fill="white"/>
<path d="M13.2153 9.40279C12.8601 9.40279 12.553 9.27802 12.2938 9.01887C12.0347 8.75972 11.9099 8.45258 11.9099 8.09746C11.9099 7.74233 12.0347 7.43519 12.2938 7.17604C12.553 6.91689 12.8601 6.79212 13.2153 6.79212C13.5704 6.79212 13.8775 6.91689 14.1367 7.17604C14.3958 7.43519 14.5206 7.74233 14.5206 8.09746C14.5206 8.45258 14.3958 8.75972 14.1367 9.01887C13.8775 9.26842 13.5704 9.40279 13.2153 9.40279Z" fill="#1C1C1A"/>
<path d="M9.76956 7.80951C9.60639 7.58876 9.39523 7.46398 9.12649 7.42559C8.85774 7.3872 8.61779 7.44479 8.39704 7.60795C8.21467 7.74233 8.09949 7.91509 8.04191 8.11665C7.45642 8.03987 6.80376 7.84791 6.1127 7.45438C6.0935 7.49278 6.42943 7.96308 6.92853 8.3758C7.52361 8.94208 8.15708 9.27802 8.83855 9.374C9.10729 9.41239 9.34724 9.3548 9.568 9.18204C9.78875 9.01887 9.91353 8.80771 9.96152 8.53897C9.99991 8.27022 9.94232 8.03027 9.76956 7.80951Z" fill="#1C1C1A"/>
<path d="M13.8295 2.49219H7.50442C4.83615 2.49219 2.66699 4.67095 2.66699 7.33921V10.6601C2.66699 13.338 4.83615 15.5072 7.50442 15.5072H13.8295C16.4978 15.5072 18.6766 13.338 18.667 10.6601V7.32961C18.667 4.66135 16.4978 2.49219 13.8295 2.49219ZM17.1313 10.6697C17.1313 12.4934 15.6532 13.9715 13.8295 13.9715H12.6461C13.7499 12.9953 14.1731 11.0229 14.0983 10.9577C12.4781 13.2276 10.3963 13.8217 9.29925 13.9715H7.50442C5.68078 13.9715 4.20268 12.4934 4.20268 10.6697V7.33921C4.20268 5.51558 5.68078 4.03748 7.50442 4.03748H13.8295C15.6532 4.03748 17.1313 5.51558 17.1313 7.33921V10.6697Z" fill="#1C1C1A"/>
</g>
<defs>
<clipPath id="clip0_12138_10816">
<rect width="20" height="20" fill="white" transform="translate(0.666992)"/>
</clipPath>
</defs>
</svg>
