<svg width="24" height="13" viewBox="0 0 24 13" fill="none" xmlns="http://www.w3.org/2000/svg">
<path d="M12.3929 10.6984L12.408 2.28668H12.9018L14.0219 0.516113H7.59696L6.53251 2.29779H7.14899L2.17624 10.7107H1.04022L0 12.4973L4.27334 12.4992L5.35067 10.7022L4.57855 10.7107L5.52334 9.19687H9.42142L9.42785 10.7107L8.42513 10.7183L7.40498 12.4992L13.0063 12.5C13.0063 12.5 14.0318 10.7494 14.0753 10.6896L12.3921 10.698L12.3929 10.6984ZM9.42748 7.41788H6.54614L9.42748 2.54652V7.41788Z" fill="#CE0E2D"/>
<path d="M22.5395 9.19839H23.2063L24.0004 7.42092L22.5751 7.41939L22.5713 0.5H18.3714L13.165 9.19724L19.5756 9.20031V10.7344H17.3998L16.3966 12.5H22.7765L23.8005 10.7294L22.535 10.7321L22.5387 9.19839H22.5395ZM19.5927 7.41786H16.7109L19.5927 2.5465V7.41786Z" fill="#CE0E2D"/>
</svg>
