<svg width="23" height="20" viewBox="0 0 23 20" fill="none" xmlns="http://www.w3.org/2000/svg">
<path d="M21.529 3.15137C21.775 3.15137 22.333 3.30687 22.333 3.78029V12.6336C22.333 12.9688 22.1805 13.304 21.7127 13.4457L11.7731 16.7907C11.6553 16.8288 11.5028 16.8495 11.3469 16.8495C11.1909 16.8495 11.0384 16.8288 10.9206 16.7907L0.981086 13.4388C0.748887 13.3593 0.333008 13.0828 0.333008 12.6336V3.78029C0.333008 3.53494 0.523619 3.15137 0.845925 3.15137H21.529Z" fill="white"/>
<path d="M21.4955 3.54744C21.7372 3.54744 21.9347 3.74212 21.9347 3.98044V12.5799C21.9347 12.8183 21.7474 13.0767 21.5159 13.1539L11.7518 16.393C11.636 16.4299 11.4862 16.45 11.333 16.45C11.1798 16.45 11.03 16.4299 10.9143 16.393L1.15009 13.1539C0.92199 13.0767 0.731336 12.8183 0.731336 12.5799V3.98044C0.731336 3.74212 0.928799 3.54744 1.17052 3.54744H21.4887M21.4955 3.15137H1.17392C0.710909 3.15137 0.333008 3.52394 0.333008 3.98379V12.5833C0.333008 12.9928 0.629201 13.4023 1.02413 13.5332L10.7883 16.7723C10.9823 16.8361 11.1934 16.8495 11.333 16.8495C11.4726 16.8495 11.6837 16.8361 11.8777 16.7723L21.6419 13.5332C22.0368 13.4023 22.333 12.9962 22.333 12.5833V3.98379C22.333 3.5273 21.9551 3.15472 21.4921 3.15472L21.4955 3.15137Z" fill="#741915"/>
<path d="M21.5027 12.2891C21.5027 12.5274 21.3155 12.7859 21.084 12.8631L11.7499 15.9613C11.5184 16.0385 11.144 16.0385 10.9159 15.9613L1.58179 12.8631C1.35372 12.7859 1.16309 12.5274 1.16309 12.2891V4.41445C1.16309 4.17613 1.36052 3.98145 1.60222 3.98145H21.0636C21.3053 3.98145 21.5027 4.17613 21.5027 4.41445V12.2891Z" fill="#B71C2F"/>
</svg>
