<svg width="20" height="20" viewBox="0 0 20 20" fill="none" xmlns="http://www.w3.org/2000/svg">
<path d="M7.34111 4.61906V3.55381H6.47593C6.07038 3.55381 5.63779 3.98639 5.63779 4.39194V14.7687C5.63779 15.1742 6.07038 15.6068 6.47593 15.6068C6.90852 15.6068 7.34111 15.1742 7.34111 14.7687V14.2333H8.81732V14.7687C8.81732 16.0394 7.75207 17.083 6.48134 17.083C5.21061 17.083 4.16699 16.0394 4.16699 14.7687V4.39194C4.16699 3.12121 5.2052 2.08301 6.47593 2.08301H8.81191V4.62447H7.3357L7.34111 4.61906Z" fill="#231F20"/>
<path d="M13.7308 4.61906V3.55381H12.8656C12.46 3.55381 12.0274 3.98639 12.0274 4.39194V14.7687C12.0274 15.1742 12.46 15.6068 12.8656 15.6068C13.2982 15.6068 13.7308 15.1742 13.7308 14.7687V14.2333H15.207V14.7687C15.207 16.0394 14.1417 17.083 12.871 17.083C11.6003 17.083 10.5566 16.0394 10.5566 14.7687V4.39194C10.5566 3.12121 11.5949 2.08301 12.8656 2.08301H15.2016V4.62447H13.7254L13.7308 4.61906Z" fill="#231F20"/>
</svg>
