<svg width="21" height="20" viewBox="0 0 21 20" fill="none" xmlns="http://www.w3.org/2000/svg">
<path d="M14.0621 7.19177L15.6271 11.0479H12.3922L14.0701 7.19177H14.0621ZM12.6826 5.41699L8.60059 14.4603H10.9159L11.7629 12.508H16.2402L17.055 14.4603H19.4993L15.5706 5.41699H12.6906H12.6826Z" fill="#686058"/>
<path d="M2.73104 9.38603H4.59456C5.62716 9.38603 7.20832 9.32149 7.20832 7.8452C7.20832 6.36891 5.7401 6.43345 4.92531 6.43345H2.73104V9.38603ZM1.16602 5.41699H4.94951C6.329 5.41699 7.26479 5.48153 8.03117 6.14304C8.59587 6.60287 8.85402 7.21597 8.85402 7.89361C8.85402 8.57125 8.57167 9.16822 7.96663 9.66032C7.36966 10.1363 6.58715 10.4348 4.55422 10.4348H2.73104V14.4522H1.16602V5.41699Z" fill="#686058"/>
</svg>
