<svg width="25" height="20" viewBox="0 0 25 20" fill="none" xmlns="http://www.w3.org/2000/svg">
<g clip-path="url(#clip0_12138_10738)">
<path d="M0.333008 13.8782C1.57306 15.084 3.53149 15.7055 6.07146 15.7055C7.63364 15.7055 9.11885 15.3235 10.1166 14.5709C10.8321 14.0321 11.3025 13.3109 11.3025 12.4015C11.3025 10.9562 9.9484 10.2749 8.14106 9.72188C6.35367 9.16884 5.8263 8.94079 5.8263 8.41911C5.8263 7.92309 6.52187 7.41282 7.74481 7.41282C8.96776 7.41282 9.90849 7.78056 10.9062 8.47613L12.9017 6.97381C11.7928 6.08154 10.2306 5.5 7.97287 5.5C6.35653 5.5 4.86846 5.9105 3.91063 6.63458C3.19511 7.17336 2.7447 7.91169 2.7447 8.77545C2.7447 10.235 4.26982 10.9306 5.98023 11.4551C7.74766 11.9939 8.21803 12.2761 8.21803 12.7579C8.21803 13.3822 7.37137 13.7927 6.20544 13.7927C4.70027 13.7927 3.55429 13.3394 2.51664 12.4871L0.333008 13.8782Z" fill="white"/>
<path d="M0.332929 13.8782L2.51371 12.4899C3.54851 13.3394 4.69449 13.7955 6.20251 13.7955C7.36844 13.7955 8.2151 13.385 8.2151 12.7607C8.2151 12.279 7.74473 11.9939 5.9773 11.458C4.26404 10.9334 2.74177 10.2379 2.74177 8.7783C2.74177 7.91454 3.19503 7.17621 3.9077 6.63743C4.86553 5.9105 6.3536 5.5 7.96994 5.5C10.2277 5.5 11.7899 6.08154 12.8988 6.97381L10.9033 8.47613C9.90556 7.78056 9.02185 7.41282 7.74188 7.41282C6.46192 7.41282 5.82337 7.92309 5.82337 8.41911C5.82337 8.94364 6.35075 9.16884 8.13813 9.72188C9.94547 10.2749 11.2996 10.9562 11.2996 12.4015C11.2996 13.3081 10.8292 14.0321 10.1137 14.5709C9.11592 15.3235 7.63071 15.7055 6.06853 15.7055C3.52856 15.7055 1.57298 15.0812 0.330078 13.8782" fill="black"/>
<path d="M13.4235 5.64258L12.708 7.65517H16.7132L13.891 15.5658H16.7902L19.6124 7.65517H23.6176L24.3331 5.64258H13.4235Z" fill="black"/>
</g>
<defs>
<clipPath id="clip0_12138_10738">
<rect width="24" height="10.2055" fill="white" transform="translate(0.333008 5.5)"/>
</clipPath>
</defs>
</svg>
