<svg width="21" height="20" viewBox="0 0 21 20" fill="none" xmlns="http://www.w3.org/2000/svg">
<path d="M3.33301 2H9.35969C12.1715 2 14.5212 2.15132 16.1434 3.75536C17.1659 4.77427 17.333 5.92434 17.333 6.75158C17.333 8.61791 16.3892 10.1917 14.8456 11.0088C13.4103 11.7654 11.444 11.7654 10.4117 11.7654H7.5802V18H3.33301V2.01009V2ZM7.46222 9.20303H9.13357C10.4805 9.20303 12.9973 9.20302 12.9973 6.76166C12.9973 4.59268 10.7558 4.59269 9.56615 4.59269H7.46222V9.20303Z" fill="#0071CE"/>
<path d="M15.4027 14.3804C15.3687 14.212 15.254 13.5382 14.0475 13.5382C12.5352 13.5382 12.2633 14.7379 12.2633 15.5431C12.2633 16.4593 12.6032 17.4495 14.039 17.4495C14.4214 17.4495 14.7867 17.3755 15.0586 17.1619C15.2837 16.9729 15.339 16.7634 15.3644 16.6483H16.3203C16.1886 17.6056 15.0501 18 13.9711 18C11.7578 18 11.333 16.4922 11.333 15.5514C11.333 14.5283 11.847 13 14.0815 13C14.9694 13 16.2226 13.2753 16.333 14.3804H15.4027Z" fill="#0071CE"/>
</svg>
