<svg width="20" height="20" viewBox="0 0 20 20" fill="none" xmlns="http://www.w3.org/2000/svg">
<path d="M16.3274 16.1056C16.7455 16.1121 17.3695 15.9651 17.5002 15.7299C16.494 15.8443 15.4224 15.4326 14.8409 15.0798C13.5897 14.3252 13.495 13.8123 12.8448 13.3712C12.6586 13.2471 12.345 12.9857 12.2764 12.7407C12.2731 12.7244 12.1 13.136 11.8942 13.3026C11.868 13.3222 11.7831 13.3876 11.7635 13.417C11.9236 13.3974 11.9987 13.417 12.051 13.4366C12.3385 13.5411 12.296 13.724 12.5182 13.7436C12.7893 13.7632 13.6256 14.678 13.6256 14.678C13.606 14.874 13.4231 14.7466 12.7468 14.1781C12.5868 14.0442 12.4528 14.1585 12.3025 14.1128C12.0379 14.0344 12.1751 13.8972 11.8582 13.7861C11.6753 13.7208 11.5217 13.6881 11.1134 13.9919C10.4469 14.4918 9.61061 14.8381 8.66648 15.0896C8.58481 15.1125 8.575 15.2236 8.65341 15.2595C8.84616 15.3477 9.10751 15.4555 9.21532 15.4653C9.67268 15.5045 10.1431 15.9488 10.4339 15.9521C10.6136 15.9521 11.0546 16.2134 11.2277 16.1906C11.4923 16.1383 12.1817 16.5826 12.3842 16.4127C12.5084 16.3735 12.7011 16.4258 12.8775 16.4813C13.1977 16.5956 13.5211 16.7492 13.8576 16.808C13.9915 16.8309 14.1287 16.7949 14.2202 16.6937C14.2757 16.6316 14.511 16.6054 14.8344 16.6643C15.0337 16.7035 15.5008 16.7982 15.674 16.6414C15.4486 16.576 15.6152 16.429 15.8145 16.4584C16.0301 16.4878 16.3992 16.5368 16.5756 16.3441C16.3731 16.331 16.1444 16.1023 16.3274 16.1056Z" fill="black"/>
<path d="M12.0083 11.816C12.0606 11.3717 11.943 11.2149 12.25 10.6791C12.5473 10.1597 13.3804 9.15672 14.3017 9.19592C14.893 9.27106 15.1641 9.14038 15.5333 8.9117C15.7914 8.86596 16.1017 8.85943 16.2749 8.84636C16.4545 8.8333 16.3337 8.73529 16.2422 8.71242C16.2128 8.70262 16.2193 8.69609 16.2422 8.68955C16.5068 8.62748 16.4709 8.52621 15.8534 8.47067C15.5855 8.438 15.3569 8.33346 15.2131 8.16358C15.0367 8.03617 14.7427 8.05251 14.6022 8.18645C14.4879 8.18645 14.3768 8.22892 14.3049 8.30406C13.8378 8.38246 13.4359 8.60135 13.1092 8.85616C12.5833 9.26779 12.0377 9.8493 11.1948 10.4961C10.7701 10.8228 10.0776 10.9372 9.61693 10.8163C9.50258 10.7869 9.04195 10.6987 8.74793 10.3132C8.50945 10.0682 8.44084 9.71209 8.14355 9.49321C7.84953 9.27759 7.51958 9.25799 7.09488 8.9117C5.60517 7.70295 4.33435 5.95516 4.24288 3.75C4.06646 3.83821 3.88352 4.05709 3.74631 4.40665C3.66464 4.61246 3.51436 4.52099 3.51763 4.11263C3.21054 4.25964 2.97859 4.78561 2.96879 5.03389C2.96225 5.23644 2.76951 5.22337 2.7303 4.95548C2.55389 5.15803 2.56369 5.54679 2.68783 5.99763C2.71397 6.09237 2.61923 6.24918 2.54409 6.04663C2.33827 6.43866 2.94265 7.28152 2.53756 7.12471C2.48529 7.34359 2.65843 7.71601 2.7303 7.88916C2.82178 8.11784 3.02759 8.38246 2.88058 8.38246C2.90345 8.91824 3.57316 9.35927 3.41309 9.45074C3.37062 9.61409 3.72344 9.80356 3.72017 9.95384C3.7071 10.5484 4.26248 10.9306 4.31148 11.2247C4.37029 11.6004 4.80152 11.8617 4.87339 12.0675C5.03673 12.5216 5.81099 13.0411 6.28796 13.2893C6.4317 13.3645 6.28142 13.6487 5.75872 13.9297C5.30135 14.1747 4.52383 14.1355 3.89005 14.6484C4.1024 14.717 3.69077 14.8411 3.81165 15.0339C4.02399 15.1025 3.64503 15.4096 3.76918 15.5533C4.07626 15.6088 3.6973 15.8375 3.83778 16.0205C4.01419 15.9421 4.15467 16.0891 4.04686 16.272C4.22981 16.4158 4.37355 16.3831 4.49116 16.3537C4.5467 16.3962 4.58917 16.4648 4.56303 16.5399C4.80152 16.5791 4.91586 16.5595 5.02693 16.4778C5.0596 16.5203 5.0596 16.5726 5.05634 16.6183C5.20988 16.6379 5.44509 16.5334 5.44509 16.5334C5.44509 16.5334 5.4549 16.5955 5.43529 16.6477C5.62804 16.6053 6.02334 16.3962 6.35329 15.8833C6.56564 15.5598 7.12428 15.2528 7.52611 15.1057C9.56792 14.3544 11.7959 13.554 12.005 11.8062L12.0083 11.816ZM13.6352 8.63402C13.7365 8.55888 14.1024 8.4282 14.2167 8.41513C14.2396 8.41513 14.0697 8.4772 14.024 8.61115C13.975 8.75816 14.0468 8.8529 14.1318 8.90844C14.2004 8.95744 14.1677 9.02278 13.975 9.05544C13.792 9.08485 13.6679 8.98031 13.5993 8.9117C13.4751 8.78102 13.4653 8.75163 13.6319 8.63402H13.6352ZM10.8453 11.3651C10.7995 11.4272 10.7113 11.5448 10.6525 11.718C10.4892 12.1982 10.1886 12.7797 9.30657 13.0117C9.30003 13.0117 9.29677 13.0117 9.29024 13.0117C9.2739 13.0117 9.2543 13.0051 9.2445 12.9888C9.02888 12.7274 9.18896 12.4792 9.2739 12.3452C9.28697 12.3223 9.30657 12.2962 9.31637 12.2766C9.3131 12.2766 9.30984 12.2766 9.30657 12.2766C8.91127 12.2766 8.85574 12.1427 8.8296 11.9826C8.81653 11.9009 8.80347 11.8421 8.70219 11.8029C8.3755 11.6755 7.99981 11.4337 8.00634 10.6922C8.01288 10.1172 7.69272 9.85257 7.68946 9.8493C7.66985 9.83296 7.66005 9.80357 7.67312 9.77743C7.68292 9.7513 7.71232 9.73823 7.73846 9.74476C7.76459 9.75129 8.01288 9.8101 8.18276 10.3785C8.42777 11.192 9.19876 11.3259 9.52872 11.3847L9.57772 11.3945C9.74107 11.4239 10.3193 11.4239 10.5839 11.3129L10.6819 11.2704C10.8224 11.2083 10.8518 11.1953 10.8877 11.2377C10.9204 11.2802 10.891 11.3161 10.8551 11.3619L10.8453 11.3651Z" fill="black"/>
</svg>
