<svg width="25" height="20" viewBox="0 0 25 20" fill="none" xmlns="http://www.w3.org/2000/svg">
<g clip-path="url(#clip0_12138_10761)">
<path fill-rule="evenodd" clip-rule="evenodd" d="M4.69409 1.02364C4.58381 0.961859 4.41838 1.02364 4.25296 1.08542L4.08754 1.20899C3.97726 1.27077 3.81184 1.33256 3.70156 1.39434C3.42585 1.5179 3.09501 1.70326 2.8193 1.82683C2.48846 2.01217 2.10248 2.19753 1.77164 2.38287C1.38565 2.56823 0.999667 2.75357 0.668823 2.93893C0.613683 3.00071 0.503402 3.00071 0.448261 3.12428C0.33798 3.24784 0.282839 3.49498 0.39312 3.61854C0.448261 3.74211 0.613683 3.8039 0.723964 3.86568C0.944526 3.92747 1.16509 3.92747 1.38565 3.92747C1.55107 3.98925 1.7165 3.98925 1.88192 4.11281C2.15762 4.29817 2.32304 4.66887 2.32304 5.03957V18.632C2.32304 18.8173 2.48846 19.0027 2.65388 19.0027H4.58381C4.74923 19.0027 4.91465 18.8173 4.91465 18.632V4.29817V3.49498V2.07396V1.39434C4.91465 1.27077 4.85951 1.08542 4.69409 1.02364Z" fill="#585857"/>
<mask id="mask0_12138_10761" style="mask-type:alpha" maskUnits="userSpaceOnUse" x="6" y="0" width="19" height="20">
<path fill-rule="evenodd" clip-rule="evenodd" d="M6.91504 0.588867H24.0462V19.4119H6.91504V0.588867Z" fill="white"/>
</mask>
<g mask="url(#mask0_12138_10761)">
<path fill-rule="evenodd" clip-rule="evenodd" d="M24.0375 9.61421C23.9818 8.74921 23.8716 7.88429 23.5958 7.0193C23.3201 6.09255 22.879 5.22758 22.3276 4.42439C21.0048 2.5091 19.0192 1.14986 16.9244 0.717377C14.6636 0.284892 12.2375 0.964514 10.4178 2.44731C8.59816 3.93012 7.32992 6.33968 6.99907 8.87283C6.66823 11.4059 7.32992 14.1862 8.70842 16.2251C8.81814 16.4104 8.98415 16.5958 9.14954 16.7811C9.92097 17.7078 10.8589 18.5111 11.9617 18.9441C12.0169 18.9441 12.0169 18.9441 12.072 19.0053H12.1266C12.2926 19.0053 12.458 18.82 12.458 18.6352C12.458 18.3263 12.2375 18.1404 12.072 17.955C10.914 16.534 10.4178 14.248 10.3075 12.3944C10.1421 10.3556 10.4178 7.51357 11.4655 5.28936C11.7411 4.73331 12.0169 4.23904 12.4023 3.74477C13.2294 2.75623 14.3322 2.01483 15.5459 2.01483C16.7032 2.01483 17.8617 2.63267 18.6889 3.55942C19.516 4.48618 20.0674 5.66006 20.4534 6.83395C21.0048 8.56391 21.2248 10.6028 21.0048 12.4562C20.7842 14.3098 19.7917 17.1518 17.8617 17.3989C16.759 17.5225 15.9319 16.534 15.5459 15.4837C15.2702 14.6187 15.215 13.5066 15.3247 12.5181C15.4908 12.827 15.6561 13.1358 15.6561 13.1358C15.6561 13.1358 15.6561 13.1977 15.7107 13.1977C16.0421 13.7537 16.4833 14.4951 16.759 14.9894C17.0892 15.5454 17.4206 15.1129 17.5861 14.6804C17.8617 14.0008 17.9163 13.383 17.6407 12.7034C17.4206 12.1474 17.0892 11.5913 16.759 11.097C16.5935 10.7881 16.4276 10.541 16.3179 10.2321C16.0421 9.55245 15.8761 8.87283 15.9319 8.13137V7.88429V7.82244C15.9319 7.69891 15.9865 7.57535 15.9865 7.45178L17.145 9.36706C17.2001 9.49068 17.2547 9.61421 17.3649 9.61421C17.5303 9.67598 17.6407 9.55245 17.7515 9.42883C18.0818 8.99637 18.0818 8.50214 17.9721 7.94606C17.9721 7.88429 17.9163 7.82244 17.9163 7.76068C17.8617 7.63713 17.8061 7.45178 17.7515 7.32821L16.5378 4.48618C16.4833 4.36261 16.4276 4.17725 16.2621 4.11547H16.2075H16.1519H16.0973H16.0421H15.9865C15.9319 4.11547 15.8761 4.17725 15.8215 4.17725C15.6561 4.30082 15.5459 4.42439 15.4908 4.60974C14.9944 5.35114 14.4431 6.09255 13.9463 6.83395C13.7808 7.08108 13.5608 7.39 13.3948 7.69891C13.1748 8.00783 12.9537 8.44029 13.0094 8.87283C13.0646 9.05814 13.1748 9.30529 13.3948 9.30529C13.5051 9.30529 13.6159 9.18175 13.6705 9.05814C14.0565 8.56391 14.6636 7.88429 14.9944 7.39L15.049 7.32821C14.8836 8.50214 14.5533 9.55245 14.0019 10.541C13.4505 11.5295 12.844 12.5181 12.2926 13.5066C12.1266 13.8773 11.9066 14.3098 12.0169 14.6804C12.072 14.8658 12.2375 15.1129 12.4023 15.0511C12.5131 15.0511 12.6234 14.9276 12.678 14.8041C12.844 14.4951 13.1748 14.0626 13.4505 13.6919C13.8917 13.0741 14.2777 12.5181 14.2777 12.5181L14.3322 12.4562C14.2219 12.7651 14.1673 13.0741 14.1122 13.4448C13.9463 14.4951 13.8365 15.5454 14.0565 16.5958C14.3322 17.955 15.1593 18.8818 16.373 19.2531C17.6964 19.6849 19.0748 19.1907 20.1777 18.3263C20.7291 17.955 21.1702 17.4607 21.6113 16.9664C23.2104 14.9894 24.1472 12.2709 24.0375 9.61421Z" fill="#585857"/>
</g>
</g>
<defs>
<clipPath id="clip0_12138_10761">
<rect width="23.7128" height="18.823" fill="white" transform="translate(0.333008 0.588867)"/>
</clipPath>
</defs>
</svg>
