<svg width="21" height="20" viewBox="0 0 21 20" fill="none" xmlns="http://www.w3.org/2000/svg">
<g clip-path="url(#clip0_12138_10750)">
<g clip-path="url(#clip1_12138_10750)">
<path d="M5.76512 9.70299L4.18931 9.06099C2.93342 8.55517 2.41463 8.06665 2.41463 7.3317C2.41463 6.5211 2.99611 6.00015 4.00558 6.00015C5.19878 6.00015 5.84294 6.67241 5.84294 7.85265H7.60249C7.60249 5.83155 6.19528 4.5 4.06826 4.5C1.94124 4.5 0.639956 5.69321 0.639956 7.43762C0.639956 8.79943 1.34464 9.76351 2.69132 10.2845L4.43574 10.9891C5.64407 11.4798 6.02668 11.8927 6.02668 12.7033C6.02668 13.6674 5.38468 14.2034 4.22174 14.2034C2.89019 14.2034 2.09472 13.3626 2.09472 11.9683H0.333008C0.333008 14.3721 1.75751 15.7339 4.23471 15.7339C6.36173 15.7339 7.78622 14.4953 7.78622 12.6579C7.78622 11.2053 7.1118 10.2542 5.76512 9.70515" fill="#343739"/>
<path d="M13.5208 4.75977H9.34892V6.41339H12.4551H12.7016L8.21191 15.4727H10.1401L14.6297 6.41339H17.3361V4.75977H15.449H13.5208Z" fill="#343739"/>
<path d="M15.0596 15.4727H16.0236L21.3326 4.75977H20.3685L15.0596 15.4727Z" fill="#343739"/>
</g>
</g>
<defs>
<clipPath id="clip0_12138_10750">
<rect width="20" height="20" fill="white" transform="translate(0.333008)"/>
</clipPath>
<clipPath id="clip1_12138_10750">
<rect width="21" height="11.2339" fill="white" transform="translate(0.333008 4.5)"/>
</clipPath>
</defs>
</svg>
