<?xml version="1.0" encoding="UTF-8"?>
<svg xmlns="http://www.w3.org/2000/svg" xmlns:xlink="http://www.w3.org/1999/xlink" version="1.1" viewBox="0 0 20 20">
  <defs>
    <style>
      .cls-1 {
        fill: none;
      }

      .cls-2 {
        clip-path: url(#clippath-1);
      }

      .cls-3 {
        fill: #fff;
      }

      .cls-4 {
        fill: #cf0d2e;
      }

      .cls-5 {
        fill: #1a171c;
      }

      .cls-6 {
        clip-path: url(#clippath);
      }
    </style>
    <clipPath id="clippath">
      <rect class="cls-1" x="-24.12" y="3.48" width="18.03" height="13.05"/>
    </clipPath>
    <clipPath id="clippath-1">
      <rect class="cls-1" x=".43" y=".43" width="19.15" height="19.15"/>
    </clipPath>
  </defs>
  <!-- Generator: Adobe Illustrator 28.7.1, SVG Export Plug-In . SVG Version: 1.2.0 Build 142)  -->
  <g>
    <g id="Layer_1">
      <g class="cls-6">
        <path class="cls-5" d="M-6.73,13.91l-.06.34-.16.79-.49-1.13h-.46s0,0,0,0h0l-.44,2.19-.07.37h.65l.02-.12s.1-.51.2-.99l.48,1.11h.45l.51-2.56h-.63Z"/>
        <path class="cls-5" d="M-14.59,14.92c.14,0,.3-.05.33-.27.03-.22-.18-.25-.32-.25,0,0-.03,0-.03,0,0,0-.04,0-.1,0l-.12.52s.2,0,.21,0h.02,0ZM-13.68,14.66c-.05.4-.3.63-.61.71l.19.44.28.66h-.64l-.26-.62-.18-.42-.13.59-.1.45h-.63l.52-2.56h.05c.14,0,.28,0,.43,0h.32c.47,0,.81.35.76.75"/>
        <path class="cls-5" d="M-22.95,14.92c.14,0,.3-.05.33-.27.03-.22-.18-.25-.32-.25,0,0-.03,0-.03,0,0,0-.04,0-.1,0l-.12.52s.2,0,.21,0h.02,0ZM-22.04,14.66c-.05.4-.3.63-.61.71l.19.44.28.66h-.64l-.26-.62-.18-.42-.13.59-.1.45h-.63l.52-2.56h.05c.14,0,.28,0,.43,0h.32c.47,0,.81.35.76.75"/>
        <path class="cls-5" d="M-15.74,16.38c-.01-.08-.3-2.47-.3-2.47h-.48l-1.32,2.56h.65l.22-.47h.58l.04.35v.11h.61v-.09s-.01,0-.01,0ZM-16.75,15.52l.3-.7.06.7h-.36Z"/>
        <path class="cls-5" d="M-21.56,16.35c.02-.08.48-2.43.48-2.43h-.65l-.43,2.19-.07.37h.65l.02-.12h0Z"/>
        <path class="cls-5" d="M-17.96,13.91l-.06.31-.12.62h-.49l.18-.93h-.65l-.51,2.56h.65l.19-.97h.49l-.19.97h.71s-.05-.04-.03-.11c.01-.07.49-2.45.49-2.45h-.65,0Z"/>
        <path class="cls-5" d="M-8.23,14.91c0-.16-.02-.31-.06-.43-.04-.13-.1-.24-.17-.32-.08-.09-.17-.15-.27-.2-.1-.04-.22-.06-.34-.06-.19,0-.36.04-.51.13-.15.09-.28.2-.39.35-.1.14-.18.31-.24.51-.06.19-.08.39-.08.61,0,.33.08.58.23.76.15.18.37.27.64.27.18,0,.34-.04.49-.13.15-.09.27-.21.38-.35.1-.15.18-.32.24-.51.06-.19.08-.4.08-.61h0ZM-8.93,15.29c-.03.12-.06.22-.11.31-.05.08-.1.15-.16.2-.06.04-.11.06-.18.06-.11,0-.15-.04-.17-.08-.04-.07-.06-.17-.06-.3s.01-.26.04-.37c.03-.12.07-.22.12-.3.05-.08.1-.14.16-.19.06-.04.11-.06.18-.06.07,0,.13.02.16.07.04.05.06.15.06.29s-.01.25-.04.37"/>
        <path class="cls-5" d="M-10.79,14.92c-.15-.1-.26-.18-.26-.27,0-.1.09-.16.23-.16h.01c.13,0,.26.05.32.09l.09.06.19-.59-.06-.04c-.14-.09-.31-.13-.52-.13-.52,0-.88.35-.88.86,0,.37.26.58.46.71.2.12.23.19.23.27,0,.14-.13.19-.24.19-.15,0-.31-.05-.43-.14l-.09-.06-.2.58.04.04c.14.12.37.19.63.19h0c.54,0,.9-.36.9-.89,0-.29-.14-.53-.44-.7"/>
        <path class="cls-5" d="M-19.4,13.98c-.1-.05-.24-.11-.49-.11-.31,0-.58.09-.8.27-.35.27-.55.74-.55,1.28,0,.68.39,1.11.98,1.11.23,0,.48-.07.52-.1,0-.02.13-.65.13-.65,0,0-.07.05-.18.08-.11.04-.23.06-.36.06-.4,0-.46-.35-.46-.56,0-.29.09-.55.26-.71.11-.11.25-.16.41-.16s.26.03.33.07c.09.04.2.13.2.13l.13-.61s-.03-.04-.13-.09"/>
        <path class="cls-5" d="M-11.8,14.47c-.05-.13-.11-.23-.2-.32-.08-.08-.19-.14-.31-.18-.11-.04-.24-.06-.37-.06-.04,0-.65,0-.65,0h-.04l-.44,2.25-.06.31h.7s.41,0,.51-.04c.15-.05.28-.12.38-.21.11-.09.2-.19.27-.3.07-.11.13-.23.16-.35.04-.12.07-.24.08-.35.02-.12.02-.22.02-.33,0-.16-.02-.31-.07-.43h0ZM-12.44,15.26c-.02.11-.06.2-.12.29-.05.09-.12.16-.2.22-.08.05-.18.08-.29.08h-.04l.25-1.27s0,0,0,0c.04,0,.08,0,.12,0,.12,0,.2.03.24.08.05.06.07.16.07.3,0,.09-.01.19-.04.3"/>
        <path class="cls-4" d="M-11.18,3.48h-7.94c-.32,0-.58.26-.58.58v7.94c0,.32.26.58.58.58h7.94c.32,0,.58-.26.58-.58v-7.94c0-.32-.26-.58-.58-.58"/>
        <path class="cls-3" d="M-12.11,9.68c.11.14.41.53.5.71.04.08.06.14-.04.14h-1.48c-.08,0-.13-.05-.15-.08-.01-.02-.02-.03-.04-.05-.8-1.25-1.34-1.52-2.54-1.86-.05-.02-.07-.07-.04-.12.07-.12.25-.4.29-.44.01-.02.05-.03.07-.03.24-.01.5.03.76-.04.69-.18.84-.59.82-.87,0-.45-.59-.67-1.63-.65-.74,0-1.03-.01-1.98,0-.37,0-.82-.21-1.17-.83-.06-.1,0-.17.07-.17.83,0,2.65,0,3.84.02,1.79.09,2.24.84,2.26,1.5.01.89-.69,1.3-.99,1.5.52.31.91.67,1.32,1.14.03.04.08.09.12.14M-15.51,7.42s0,.04-.02.06c0,0,0,0,0,0-.13.15-1.22,1.43-1.63,2.97,0,.03-.04.08-.12.08-.14,0-.94,0-1.33,0-.1,0-.11-.08-.07-.15.54-.95,1.19-1.92,2.06-2.87.19-.18.31-.16.49-.17.09,0,.38,0,.55,0,.05,0,.09.04.09.09"/>
      </g>
      <g class="cls-2">
        <path class="cls-4" d="M18.35.43H1.65C.97.43.43.97.43,1.65v16.71c0,.67.55,1.22,1.22,1.22h16.71c.67,0,1.22-.55,1.22-1.22V1.65c0-.67-.55-1.22-1.22-1.22"/>
        <path class="cls-3" d="M16.4,13.47c.23.3.87,1.12,1.06,1.49.08.16.13.29-.08.29h-3.11c-.18,0-.27-.11-.31-.17-.03-.04-.05-.07-.08-.11-1.69-2.63-2.81-3.2-5.34-3.91-.1-.04-.14-.15-.09-.25.14-.24.53-.84.61-.92.03-.04.11-.06.15-.07.51-.03,1.05.07,1.59-.09,1.44-.39,1.77-1.24,1.72-1.83-.01-.94-1.23-1.41-3.43-1.37-1.56,0-2.16-.02-4.16-.02-.78.02-1.73-.44-2.45-1.74-.12-.21.01-.36.15-.36,1.74.02,5.57-.01,8.07.05,3.76.19,4.71,1.77,4.76,3.15.03,1.87-1.45,2.73-2.08,3.15,1.09.65,1.9,1.4,2.77,2.4.07.08.16.19.25.3M9.25,8.72s-.01.08-.04.12c0,0-.01.01-.02.02-.28.32-2.56,3.01-3.44,6.24-.02.06-.08.17-.26.17-.3,0-1.98,0-2.8,0-.2,0-.23-.17-.15-.33,1.13-1.99,2.5-4.03,4.33-6.04.4-.37.66-.34,1.03-.36.18-.01.8-.02,1.15-.01.11,0,.19.09.19.19"/>
      </g>
    </g>
  </g>
</svg>